<svg width="134" height="65" viewBox="0 0 134 65" fill="none" xmlns="http://www.w3.org/2000/svg">
<path d="M2.57812 42V35.3281V30.6797V30.2422V30.1875V30.0234V29.8594C2.61458 27.362 3.01562 25.3385 3.78125 23.7891C4.54688 22.2214 5.47656 21.0273 6.57031 20.207C7.66406 19.3867 8.82161 18.8398 10.043 18.5664C11.2643 18.293 12.3398 18.1562 13.2695 18.1562H21.5547V18.2109H22.1562C22.9766 18.1016 23.724 17.8372 24.3984 17.418C24.9635 17.0534 25.4648 16.5247 25.9023 15.832C26.3581 15.1393 26.6042 14.1367 26.6406 12.8242C26.6042 11.5482 26.3581 10.5729 25.9023 9.89844C25.4648 9.20573 24.9635 8.6862 24.3984 8.33984C23.724 7.92057 22.9766 7.68359 22.1562 7.62891H3.64453V0.957031H22.5664C23.2044 0.957031 23.9062 1.01172 24.6719 1.12109C25.4375 1.23047 26.2122 1.4401 26.9961 1.75C27.7799 2.04167 28.5365 2.46094 29.2656 3.00781C30.013 3.53646 30.6784 4.22917 31.2617 5.08594C31.8451 5.94271 32.3099 6.99089 32.6562 8.23047C33.0208 9.47005 33.2214 10.9284 33.2578 12.6055V12.8242V12.9336V13.043V13.0977V13.2617C33.2214 15.7956 32.8203 17.8281 32.0547 19.3594C31.2891 20.8724 30.3594 22.0391 29.2656 22.8594C28.1901 23.6797 27.0326 24.2174 25.793 24.4727C24.5716 24.7279 23.4961 24.8555 22.5664 24.8555H21.5547H13.707C12.8138 24.8919 12.0299 25.1198 11.3555 25.5391C10.7539 25.8672 10.207 26.3867 9.71484 27.0977C9.24089 27.8086 9.00391 28.8021 9.00391 30.0781V30.4062V35.3281H32.6289V42H2.57812ZM35.8008 27.1523V14.9023C35.9102 12.168 36.5117 9.74349 37.6055 7.62891C38.0612 6.73568 38.6354 5.85156 39.3281 4.97656C40.0391 4.08333 40.9049 3.29036 41.9258 2.59766C42.9648 1.90495 44.168 1.35807 45.5352 0.957031C46.9206 0.53776 48.5339 0.328125 50.375 0.328125H51.1953V0.382812V0.328125H52.043C53.8294 0.328125 55.4154 0.53776 56.8008 0.957031C58.1862 1.35807 59.3893 1.90495 60.4102 2.59766C61.4492 3.29036 62.3151 4.07422 63.0078 4.94922C63.7188 5.82422 64.3021 6.71745 64.7578 7.62891C65.8333 9.76172 66.4531 12.1862 66.6172 14.9023V27.1523C66.4349 30.0326 65.8151 32.612 64.7578 34.8906C64.3021 35.8568 63.7188 36.8047 63.0078 37.7344C62.3151 38.6458 61.4583 39.4661 60.4375 40.1953C59.4349 40.9062 58.2409 41.4896 56.8555 41.9453C55.4701 42.401 53.8659 42.6289 52.043 42.6289H51.1953V42.5469V42.6289H50.3203C48.4974 42.6289 46.8932 42.401 45.5078 41.9453C44.1224 41.4896 42.9102 40.9062 41.8711 40.1953C40.8503 39.4661 39.9935 38.6458 39.3008 37.7344C38.6081 36.8047 38.043 35.8568 37.6055 34.8906C36.5664 32.612 35.9648 30.0326 35.8008 27.1523ZM42.3633 25.6484C42.4362 27.4714 42.8099 29.1302 43.4844 30.625C43.7396 31.263 44.0768 31.8919 44.4961 32.5117C44.9336 33.1315 45.4622 33.6966 46.082 34.207C46.7018 34.6992 47.431 35.1276 48.2695 35.4922C49.1081 35.8385 50.0833 36.0482 51.1953 36.1211V36.2305V36.1211C52.3073 36.0482 53.2826 35.8385 54.1211 35.4922C54.9779 35.1276 55.7161 34.6992 56.3359 34.207C56.9557 33.6966 57.4661 33.1315 57.8672 32.5117C58.2865 31.8919 58.6419 31.263 58.9336 30.625C59.6081 29.1302 59.9818 27.4714 60.0547 25.6484V16.8438C59.9818 15.1302 59.6081 13.5625 58.9336 12.1406C58.6419 11.5391 58.2865 10.9466 57.8672 10.3633C57.4661 9.76172 56.9557 9.23307 56.3359 8.77734C55.7161 8.30339 54.987 7.90234 54.1484 7.57422C53.3099 7.22786 52.3255 7.01823 51.1953 6.94531V6.89062V6.94531C50.0833 7.01823 49.1081 7.22786 48.2695 7.57422C47.431 7.90234 46.7018 8.30339 46.082 8.77734C45.4622 9.23307 44.9336 9.76172 44.4961 10.3633C44.0768 10.9648 43.7396 11.5573 43.4844 12.1406C42.8099 13.5625 42.4362 15.1302 42.3633 16.8438V25.6484ZM47.7773 24.7461V18.1562H54.3945V24.7461H47.7773ZM69.8984 42V35.3281V30.6797V30.2422V30.1875V30.0234V29.8594C69.9349 27.362 70.3359 25.3385 71.1016 23.7891C71.8672 22.2214 72.7969 21.0273 73.8906 20.207C74.9844 19.3867 76.1419 18.8398 77.3633 18.5664C78.5846 18.293 79.6602 18.1562 80.5898 18.1562H88.875V18.2109H89.4766C90.2969 18.1016 91.0443 17.8372 91.7188 17.418C92.2839 17.0534 92.7852 16.5247 93.2227 15.832C93.6784 15.1393 93.9245 14.1367 93.9609 12.8242C93.9245 11.5482 93.6784 10.5729 93.2227 9.89844C92.7852 9.20573 92.2839 8.6862 91.7188 8.33984C91.0443 7.92057 90.2969 7.68359 89.4766 7.62891H70.9648V0.957031H89.8867C90.5247 0.957031 91.2266 1.01172 91.9922 1.12109C92.7578 1.23047 93.5326 1.4401 94.3164 1.75C95.1003 2.04167 95.8568 2.46094 96.5859 3.00781C97.3333 3.53646 97.9987 4.22917 98.582 5.08594C99.1654 5.94271 99.6302 6.99089 99.9766 8.23047C100.341 9.47005 100.542 10.9284 100.578 12.6055V12.8242V12.9336V13.043V13.0977V13.2617C100.542 15.7956 100.141 17.8281 99.375 19.3594C98.6094 20.8724 97.6797 22.0391 96.5859 22.8594C95.5104 23.6797 94.3529 24.2174 93.1133 24.4727C91.8919 24.7279 90.8164 24.8555 89.8867 24.8555H88.875H81.0273C80.1341 24.8919 79.3503 25.1198 78.6758 25.5391C78.0742 25.8672 77.5273 26.3867 77.0352 27.0977C76.5612 27.8086 76.3242 28.8021 76.3242 30.0781V30.4062V35.3281H99.9492V42H69.8984ZM103.176 42.0547V35.6289H120.977C121.013 35.6289 121.268 35.5924 121.742 35.5195C122.216 35.4284 122.727 35.2188 123.273 34.8906C123.839 34.5443 124.34 34.0247 124.777 33.332C125.233 32.6211 125.461 31.6094 125.461 30.2969C125.461 28.9844 125.224 27.9727 124.75 27.2617C124.294 26.5508 123.784 26.013 123.219 25.6484C122.544 25.2292 121.797 24.9466 120.977 24.8008H111.926V18.2109H120.977C121.013 18.2109 121.268 18.1745 121.742 18.1016C122.216 18.0104 122.727 17.8008 123.273 17.4727C123.839 17.1445 124.34 16.625 124.777 15.9141C125.233 15.2031 125.461 14.1914 125.461 12.8789C125.461 11.5664 125.224 10.5638 124.75 9.87109C124.294 9.16016 123.784 8.63151 123.219 8.28516C122.544 7.86589 121.797 7.64714 120.977 7.62891H103.176V0.957031H121.387C122.353 0.957031 123.447 1.08464 124.668 1.33984C125.908 1.59505 127.074 2.15104 128.168 3.00781C129.28 3.84635 130.219 5.04948 130.984 6.61719C131.75 8.1849 132.133 10.2721 132.133 12.8789C132.133 14.3372 131.969 15.5951 131.641 16.6523C131.331 17.6914 130.957 18.5664 130.52 19.2773C130.1 19.9701 129.69 20.4896 129.289 20.8359C128.906 21.1641 128.66 21.3464 128.551 21.3828V21.6836C129.225 22.1029 129.818 22.6771 130.328 23.4062C130.784 24.0443 131.194 24.9284 131.559 26.0586C131.941 27.1706 132.133 28.5833 132.133 30.2969C132.133 32.5755 131.75 34.4714 130.984 35.9844C130.219 37.4974 129.28 38.7005 128.168 39.5938C127.074 40.487 125.908 41.125 124.668 41.5078C123.447 41.8724 122.353 42.0547 121.387 42.0547H103.176Z" fill="white"/>
<path d="M0.664062 61.5508H133.309V64.3398H0.664062V61.5508Z" fill="white"/>
</svg>
