<svg width="428" height="409" viewBox="0 0 428 409" fill="none" xmlns="http://www.w3.org/2000/svg">
<mask id="mask0_478_81" style="mask-type:luminance" maskUnits="userSpaceOnUse" x="0" y="0" width="428" height="409">
<path d="M427.912 409H0V-6.10352e-05H427.912V409Z" fill="white"/>
</mask>
<g mask="url(#mask0_478_81)">
<path d="M340.074 169.727C344.21 179.163 346.512 191.552 341.859 205.983C341.859 205.983 343.47 195.01 341.277 181.749C341.316 177.54 340.872 173.527 340.074 169.727Z" fill="#DA5618"/>
<path d="M330.832 244.284C326.437 257.253 313.56 291.462 291.461 320.468C292.058 319.377 323.104 263.017 330.832 244.284Z" fill="#733BE4"/>
<path d="M341.276 181.749C341.225 188.236 340.057 195.191 337.348 202.561C337.348 202.561 343.308 182.588 331.787 156.884C337.19 164.703 339.94 173.652 341.276 181.749Z" fill="#2D497A"/>
<path d="M331.922 203.168C330.53 216.248 325.84 230.832 315.408 243.087C319.383 236.294 321.72 230.988 323.097 227.058C328.594 218.232 330.881 209.72 331.811 203.626C331.881 203.332 331.922 203.168 331.922 203.168Z" fill="#2D497A"/>
<path d="M331.811 203.626C330.881 209.72 328.595 218.232 323.098 227.058C325.211 220.992 325.037 218.177 325.037 218.177C328.355 216.779 331.217 205.991 331.811 203.626Z" fill="#252A30"/>
<path d="M323.948 179.9C323.929 179.725 323.87 179.225 323.729 178.439C323.812 178.92 323.88 179.41 323.948 179.9ZM323.723 178.394C322.732 171.975 320.976 166.267 318.682 161.197C330.634 176.972 332.249 191.211 332.354 192.256C332.36 192.302 332.361 192.321 332.361 192.321C332.381 193.066 332.388 193.82 332.39 194.586C332.388 194.592 332.386 194.598 332.391 194.605C332.38 196.966 332.275 199.419 332.046 201.931C331.975 202.469 331.902 203.037 331.81 203.626C331.215 205.991 328.354 216.779 325.035 218.177C324.274 216.815 322.054 214.869 319.676 213.041C323.226 206.197 325.223 201.271 325.223 201.271L317.645 211.532C314.819 209.49 312.301 207.886 312.301 207.886C312.301 207.886 312.767 198.764 310.778 188.789C315.164 176.383 316.438 168.079 316.438 168.079C314.495 173.942 312.3 179.609 309.922 185.061C308.994 181.519 307.72 178.004 305.969 174.869C310.872 169.091 313.054 158.869 313.658 155.516C320.868 165.785 323.094 174.861 323.723 178.394Z" fill="#95ABCB"/>
<path d="M340.071 169.727C340.869 173.527 341.313 177.54 341.274 181.749C339.938 173.652 337.188 164.703 331.785 156.884C331.554 156.348 331.304 155.814 331.049 155.277C333.884 158.657 337.368 163.557 340.071 169.727Z" fill="#EEBD2F"/>
<path d="M325.036 218.177C325.036 218.177 325.211 220.992 323.097 227.058C320.487 231.247 317.155 235.506 312.901 239.612C302.513 249.635 291.073 254.162 282.083 256.173C280.106 255.049 278.19 253.759 276.879 252.41C277.993 250.713 278.982 249.037 279.856 247.391C284.643 245.851 289.486 243.562 293.911 240.27C295.324 239.222 296.807 237.66 298.286 235.672L299.271 236.402L288.806 250.567C302.31 243.157 313.414 225.117 319.676 213.041C322.055 214.869 324.275 216.815 325.036 218.177Z" fill="#AABDDD"/>
<path d="M323.098 227.058C321.722 230.988 319.384 236.294 315.41 243.087L315.408 243.093C315.163 243.381 314.919 243.669 314.67 243.95C310.798 248.345 306.782 251.809 302.83 254.539L302.828 254.545C301.293 255.602 299.769 256.556 298.276 257.4C298.224 257.429 298.178 257.46 298.12 257.487C297.827 257.655 297.546 257.807 297.265 257.96C294.09 259.562 290.376 260.077 290.376 260.077C290.376 260.077 286.105 258.466 282.084 256.173C291.074 254.162 302.514 249.635 312.902 239.612C317.156 235.506 320.489 231.247 323.098 227.058Z" fill="#252A30"/>
<path d="M317.646 211.532L325.224 201.271C325.224 201.271 323.227 206.197 319.677 213.041C319.002 212.524 318.312 212.015 317.646 211.532Z" fill="#E69A28"/>
<path d="M330.258 176.928C331.396 181.076 332.198 186.344 332.354 192.256C332.249 191.211 330.634 176.972 318.682 161.197C317.758 159.148 316.743 157.199 315.654 155.355C318.222 156.759 322.846 159.58 325.088 162.755L325.279 162.633C328.968 170.857 330.258 176.928 330.258 176.928Z" fill="#AABDDD"/>
<path d="M301.117 276.162C301.117 276.162 282.783 353.139 179.432 372.569C222.724 358.783 251.8 334.317 270.792 311.214C270.799 311.21 270.801 311.204 270.802 311.198C281.513 301.542 291.86 289.984 301.117 276.162Z" fill="#DF771F"/>
<path d="M317.645 211.532C318.31 212.015 319 212.524 319.675 213.041C313.413 225.117 302.309 243.157 288.805 250.567L299.269 236.402L317.645 211.532Z" fill="#EEBD2F"/>
<path d="M317.645 211.532L299.269 236.402L298.285 235.672C302.24 230.341 306.104 221.949 308.088 212.247C309.563 210.891 310.984 209.438 312.301 207.886C312.301 207.886 314.819 209.49 317.645 211.532Z" fill="#AABDDD"/>
<path d="M340.072 169.727C337.369 163.557 333.885 158.657 331.05 155.277C326.605 145.868 319.795 135.737 309.494 125.577C310.085 125.97 334.347 142.399 340.072 169.727Z" fill="#2D497A"/>
<path d="M323.948 179.9C323.88 179.41 323.812 178.92 323.729 178.439C323.87 179.225 323.928 179.725 323.948 179.9Z" fill="#C5D1DB"/>
<path d="M302.826 254.545C302.671 255.072 294.766 282.043 270.801 311.198C270.799 311.204 270.797 311.21 270.79 311.214C255.272 325.201 239.005 335.194 224.213 342.302C253.736 323.274 282.045 295.386 302.826 254.545Z" fill="#EEBD2F"/>
<path d="M325.278 162.633L325.087 162.755C322.845 159.58 318.221 156.759 315.653 155.355C313.874 152.343 311.899 149.595 309.782 147.089C303.078 137.115 294.012 130.828 294.012 130.828L295.642 127.841C297.776 129.117 299.859 130.528 301.873 132.071C313.833 141.221 321.098 153.311 325.278 162.633Z" fill="#2D497A"/>
<path d="M276.742 280.56C277.081 278.211 277.171 275.748 276.943 273.257C276.807 271.788 276.375 270.349 275.748 268.974C275.051 267.429 274.116 265.973 273.095 264.643C273.095 264.643 279.201 264.886 287.733 262.081L287.74 262.077C290.679 261.11 293.901 259.784 297.264 257.96C297.555 257.816 297.844 257.66 298.119 257.487C298.177 257.46 298.223 257.429 298.276 257.4C299.769 256.556 301.293 255.602 302.827 254.545C282.046 295.386 253.738 323.274 224.214 342.302C195.104 356.288 171.714 359.091 171.045 359.171C192.544 354.634 211.871 342.141 227.89 327.844C227.923 327.816 227.949 327.792 227.982 327.764C229.231 326.675 230.451 325.554 231.65 324.401C234.683 321.549 237.594 318.643 240.356 315.733C242.049 315.799 243.017 314.042 243.017 314.042L245.138 310.561C245.502 310.162 245.861 309.756 246.219 309.356C246.483 309.356 246.87 309.34 247.3 309.261C247.33 309.42 247.891 312.087 250.578 312.497C253.349 312.918 255.687 313.493 257.014 310.026L257.978 307.377C258.067 307.371 258.157 307.365 258.245 307.365C260.086 307.304 260.624 305.606 260.624 305.606C268.347 301.825 270.977 294.313 270.977 294.313C273.755 290.949 275.939 286.051 276.742 280.56Z" fill="#411CA9"/>
<path d="M298.119 257.487C297.844 257.66 297.555 257.816 297.264 257.96C297.545 257.807 297.826 257.655 298.119 257.487Z" fill="#411CA9"/>
<path d="M312.301 207.886C310.984 209.438 309.563 210.891 308.088 212.247C309.32 206.239 309.826 199.718 309.183 193.109C309.761 191.624 310.289 190.181 310.777 188.789C312.767 198.764 312.301 207.886 312.301 207.886Z" fill="#411CA9"/>
<path d="M308.091 212.247C306.107 221.949 302.243 230.341 298.288 235.672C296.809 237.66 295.326 239.222 293.913 240.27C289.488 243.562 284.645 245.851 279.857 247.392C281.869 243.61 283.279 240.028 284.275 236.912C284.277 236.906 284.282 236.908 284.278 236.901C288.31 231.829 291.855 226.733 294.967 221.721C298.927 219.451 303.732 216.279 308.091 212.247Z" fill="#95ABCB"/>
<path d="M290.376 260.077C290.376 260.077 294.09 259.562 297.264 257.96C293.901 259.784 290.679 261.11 287.74 262.076L290.376 260.077Z" fill="#A8B5C3"/>
<path d="M318.682 161.197C320.976 166.267 322.732 171.975 323.723 178.394C323.094 174.861 320.868 165.785 313.658 155.516C313.68 155.416 313.693 155.326 313.705 155.242C315.535 157.233 317.19 159.226 318.682 161.197Z" fill="#EEBD2F"/>
<path d="M316.438 168.079C316.438 168.079 315.164 176.383 310.778 188.789C310.532 187.553 310.252 186.308 309.922 185.061C312.3 179.609 314.495 173.942 316.438 168.079Z" fill="#DF771F"/>
<path d="M290.376 260.077L287.741 262.077L287.733 262.081C279.202 264.886 273.095 264.643 273.095 264.643C269.971 260.578 266.071 257.768 265.877 257.632L265.873 257.624C265.873 257.624 272.631 258.291 282.084 256.173C286.106 258.466 290.376 260.077 290.376 260.077Z" fill="#2D497A"/>
<path d="M309.184 193.109C309.826 199.718 309.32 206.239 308.088 212.247C303.73 216.279 298.925 219.451 294.965 221.721C301.36 211.432 305.943 201.539 309.184 193.109Z" fill="#252A30"/>
<path d="M310.78 188.789C310.292 190.181 309.764 191.624 309.186 193.109C309.036 191.493 308.809 189.861 308.504 188.238C308.984 187.183 309.459 186.126 309.924 185.061C310.254 186.308 310.535 187.553 310.78 188.789Z" fill="#DA016A"/>
<path d="M308.501 188.238C308.806 189.861 309.034 191.493 309.184 193.109C305.943 201.539 301.36 211.432 294.965 221.721C290.622 224.215 287.29 225.616 286.674 225.868C294.417 214.957 302.069 202.335 308.501 188.238Z" fill="#DA5618"/>
<path d="M309.922 185.061C309.457 186.126 308.982 187.183 308.502 188.238C307.645 183.582 306.161 178.929 303.91 174.436C305.23 174.69 305.969 174.869 305.969 174.869C307.72 178.004 308.994 181.519 309.922 185.061Z" fill="#411CA9"/>
<path d="M315.656 155.355C316.745 157.199 317.76 159.148 318.684 161.197C317.193 159.226 315.538 157.233 313.707 155.242C313.807 154.712 313.847 154.416 313.847 154.416C313.847 154.416 314.565 154.757 315.656 155.355Z" fill="#DF771F"/>
<path d="M313.659 155.516C313.054 158.869 310.873 169.091 305.97 174.869C305.97 174.869 305.23 174.69 303.911 174.436C299.202 165.007 291.118 156.253 278.303 149.5C274.599 147.548 270.982 145.909 267.455 144.546C269.161 139.675 269.838 136.688 269.838 136.688C268.909 139.239 267.859 141.77 266.709 144.259C263.771 143.145 260.901 142.231 258.098 141.481C260.146 136.155 262.928 129.256 264.242 127.629C264.242 127.629 265.391 127.333 267.436 127.085C272.046 128.473 276.908 130.302 281.996 132.658C295.5 138.924 305.4 146.493 312.648 154.108C312.998 154.577 313.334 155.048 313.659 155.516Z" fill="#BAD0FC"/>
<path d="M313.705 155.242C313.693 155.326 313.68 155.416 313.658 155.516C313.333 155.048 312.996 154.577 312.646 154.108C313.009 154.486 313.361 154.862 313.705 155.242Z" fill="#DEE6ED"/>
<path d="M315.653 155.355C314.562 154.757 313.844 154.416 313.844 154.416C312.703 151.804 311.304 149.351 309.781 147.089C311.899 149.595 313.873 152.343 315.653 155.355Z" fill="#2D497A"/>
<path d="M313.846 154.416C313.846 154.416 313.806 154.712 313.706 155.242C313.362 154.862 313.011 154.486 312.648 154.108C305.752 144.787 294.697 134.658 277.012 126.883C278.801 127.007 280.731 127.234 282.777 127.601C291.532 131.379 301.677 137.463 309.784 147.089C311.306 149.351 312.705 151.804 313.846 154.416Z" fill="#E69A28"/>
<path d="M276.741 280.56C275.938 286.051 273.754 290.949 270.977 294.313C265.722 302.681 257.665 305.05 249.613 305.452C253.87 300.451 257.665 295.602 260.958 291.168C270.14 291.975 274.882 284.535 276.741 280.56Z" fill="#1E334F"/>
<path d="M282.084 256.173C272.63 258.291 265.872 257.624 265.872 257.624C265.694 257.348 265.512 257.083 265.332 256.832C265.797 256.43 266.258 256.022 266.706 255.61L276.88 252.41C278.191 253.759 280.107 255.049 282.084 256.173Z" fill="#252A30"/>
<path d="M276.943 273.257C277.171 275.748 277.081 278.211 276.742 280.56C274.882 284.535 270.141 291.975 260.959 291.168C270.239 278.661 275.51 269.396 275.738 268.99C275.747 268.98 275.748 268.974 275.748 268.974C276.374 270.349 276.807 271.788 276.943 273.257Z" fill="#243D62"/>
<path d="M303.91 174.436C306.161 178.929 307.645 183.582 308.502 188.238C302.069 202.335 294.417 214.957 286.674 225.868C286.611 225.894 286.575 225.908 286.575 225.908C283.942 224.58 272.503 212.906 267.233 207.45C266.797 205.603 266.249 203.799 265.586 202.043L276.932 173.326C288.555 171.891 299.494 173.579 303.91 174.436Z" fill="#252A30"/>
<path d="M270.976 294.313C270.976 294.313 268.346 301.825 260.623 305.606C258.657 306.567 256.366 307.284 253.705 307.583C253.627 307.593 253.583 307.593 253.583 307.593C253.317 307.624 253.053 307.65 252.779 307.666C251.64 307.745 250.518 307.809 249.398 307.868C248.743 307.902 248.095 307.932 247.441 307.959C248.18 307.122 248.9 306.285 249.613 305.452C257.664 305.05 265.721 302.681 270.976 294.313Z" fill="#7C8B9B"/>
<path d="M270.789 311.214C251.798 334.317 222.722 358.783 179.429 372.569C167.07 374.898 153.493 376.394 138.582 376.84C164.167 371.424 194.789 361.265 224.212 342.302C239.004 335.194 255.272 325.201 270.789 311.214Z" fill="#DA5618"/>
<path d="M244.127 272.417C249.796 268.963 255.029 265.273 259.858 261.419C260.608 262.07 261.324 262.574 261.972 262.876C264.975 264.273 268.101 263.284 268.101 263.284L267.648 262.183L265.878 257.632C266.071 257.768 269.971 260.578 273.096 264.643C274.117 265.973 275.053 267.429 275.749 268.974C275.749 268.974 275.748 268.98 275.739 268.99C269.515 276.707 262.951 283.788 256.105 290.268C245.31 288.402 236.187 291.993 227.526 296.868C227.836 293.163 227.148 289.858 226.12 287.002C225.606 285.566 224.875 284.073 223.638 282.575C225.37 281.862 226.623 280.913 227.204 279.635C230.721 271.848 210.238 274.723 210.238 274.723C208.984 274.304 207.626 273.895 206.154 273.49C206.484 273.213 206.807 272.935 207.126 272.65C208.458 272.707 209.958 272.743 211.557 272.745C217.454 272.754 218.685 266.263 218.685 266.263L218.777 266.05C225.735 268.975 229.7 268.148 234.903 265.873C243.715 262.011 242.748 244.866 242.748 244.866C242.748 244.866 249.645 248.757 252.073 252.185C253.567 254.301 255.847 257.342 258.072 259.69C250.132 267.598 244.623 272.018 244.127 272.417Z" fill="#172A3C"/>
<path d="M294.965 221.721C291.852 226.733 288.308 231.829 284.275 236.901C286.154 231 286.512 226.769 286.566 226.025C286.6 225.972 286.64 225.921 286.674 225.868C287.29 225.616 290.622 224.215 294.965 221.721Z" fill="#DA016A"/>
<path d="M286.567 226.025C286.513 226.769 286.154 231 284.276 236.901C284.28 236.908 284.274 236.906 284.272 236.912C281.037 240.986 277.487 245.04 273.597 249.01C271.448 249.448 269.353 249.739 267.373 249.911C273.38 243.269 280.001 235.257 286.567 226.025Z" fill="#5885F9"/>
<path d="M286.576 225.908C286.576 225.908 286.572 225.945 286.567 226.025C280.002 235.257 273.381 243.269 267.374 249.911C262.792 250.325 258.777 250.134 255.918 249.65C255.875 249.645 255.858 249.639 255.858 249.639C255.201 249.147 254.554 248.599 253.928 248.021C254.107 247.94 255.313 247.047 255.216 244.58C258.616 246.346 261.004 244.245 260.713 240.469C268.333 230.591 269.81 218.362 267.234 207.45C272.504 212.906 283.943 224.58 286.576 225.908Z" fill="#BAD0FC"/>
<path d="M284.273 236.912C283.277 240.028 281.868 243.61 279.856 247.392C277.744 248.072 275.643 248.606 273.598 249.01C277.487 245.04 281.037 240.986 284.273 236.912Z" fill="#7C8B9B"/>
<path d="M279.855 247.391C278.982 249.037 277.993 250.713 276.879 252.41L266.705 255.61C269.117 253.447 271.411 251.238 273.597 249.01C275.643 248.606 277.744 248.072 279.855 247.391Z" fill="#C5D1DB"/>
<path d="M260.623 305.606C260.623 305.606 260.085 307.304 258.244 307.365C258.156 307.365 258.066 307.371 257.977 307.377C256.381 307.433 254.24 307.553 253.705 307.583C256.367 307.284 258.658 306.567 260.623 305.606Z" fill="#E69A28"/>
<path d="M303.912 174.436C299.496 173.579 288.557 171.891 276.934 173.326C273.476 167.38 267.665 160.587 262.988 155.537C264.934 151.323 266.392 147.574 267.456 144.546C270.983 145.909 274.6 147.548 278.304 149.5C291.119 156.253 299.203 165.007 303.912 174.436Z" fill="#95ABCB"/>
<path d="M257.977 307.377L257.014 310.026C255.686 313.493 253.348 312.918 250.577 312.497C247.89 312.087 247.329 309.42 247.299 309.261C248.082 309.107 248.983 308.741 249.399 307.868C250.519 307.809 251.641 307.745 252.779 307.666C253.054 307.65 253.318 307.624 253.584 307.593C253.584 307.593 253.627 307.593 253.705 307.583C254.24 307.553 256.381 307.433 257.977 307.377Z" fill="#51606C"/>
<path d="M267.375 249.911C269.355 249.739 271.449 249.448 273.599 249.01C271.413 251.238 269.119 253.447 266.707 255.61L264.868 256.192L264.862 256.191C264.345 255.492 263.819 254.873 263.305 254.32C264.621 252.925 265.984 251.455 267.375 249.911Z" fill="#DA016A"/>
<path d="M275.737 268.99C275.509 269.396 270.239 278.661 260.959 291.168C260.133 291.097 259.263 290.957 258.359 290.738C257.596 290.554 256.849 290.405 256.104 290.268C262.949 283.788 269.513 276.707 275.737 268.99Z" fill="#733BE4"/>
<path d="M267.645 262.183L268.098 263.284C268.098 263.284 264.972 264.273 261.969 262.876C261.321 262.574 260.605 262.07 259.855 261.419C260.211 261.137 260.559 260.859 260.903 260.575C261.949 261.397 262.952 261.951 263.754 261.997C266.341 262.14 267.645 262.183 267.645 262.183Z" fill="#142430"/>
<path d="M265.876 257.632L267.646 262.183C267.646 262.183 266.342 262.14 263.755 261.997C262.953 261.951 261.95 261.397 260.904 260.575C262.425 259.344 263.896 258.093 265.331 256.832C265.511 257.083 265.693 257.348 265.872 257.624L265.876 257.632Z" fill="#1E334F"/>
<path d="M294.014 130.828C294.014 130.828 303.08 137.114 309.784 147.089C301.677 137.463 291.532 131.379 282.777 127.601C286.247 128.213 290.041 129.226 294.014 130.828Z" fill="#AABDDD"/>
<path d="M258.358 290.738C259.262 290.957 260.131 291.097 260.958 291.168C257.664 295.602 253.869 300.451 249.612 305.452C246.692 305.603 243.777 305.492 240.994 305.312C240.182 305.257 239.315 305.262 238.393 305.308C244.472 300.692 250.385 295.69 256.102 290.268C256.848 290.405 257.595 290.554 258.358 290.738Z" fill="#DA5618"/>
<path d="M264.867 256.192L266.706 255.61C266.257 256.022 265.797 256.43 265.331 256.832C265.176 256.606 265.023 256.393 264.867 256.192Z" fill="#EEBD2F"/>
<path d="M264.865 256.192C265.021 256.393 265.174 256.606 265.329 256.832C263.893 258.093 262.423 259.344 260.902 260.575C260.256 260.066 259.594 259.458 258.953 258.8C260.339 257.406 261.79 255.911 263.301 254.32C263.815 254.873 264.342 255.492 264.859 256.191L264.865 256.192Z" fill="#E69A28"/>
<path d="M267.374 249.911C265.984 251.455 264.621 252.925 263.304 254.32C259.705 250.447 256.401 249.737 255.918 249.65C258.778 250.134 262.793 250.325 267.374 249.911Z" fill="#7C8B9B"/>
<path d="M249.614 305.452C248.901 306.285 248.181 307.122 247.442 307.959C242.817 308.173 238.223 308.345 233.229 309.112C234.965 307.873 236.685 306.605 238.394 305.308C239.316 305.262 240.183 305.257 240.995 305.312C243.778 305.492 246.693 305.603 249.614 305.452Z" fill="#E69A28"/>
<path d="M247.301 309.261C246.871 309.34 246.484 309.356 246.221 309.356C246.635 308.89 247.041 308.429 247.444 307.959C248.098 307.932 248.746 307.902 249.401 307.868C248.984 308.741 248.084 309.107 247.301 309.261Z" fill="#51606C"/>
<path d="M247.442 307.959C247.039 308.429 246.632 308.89 246.219 309.356C246.012 309.354 245.884 309.343 245.884 309.343C240.925 309.029 236.128 309.143 233.661 309.241C233.421 309.248 233.204 309.262 233.008 309.269C233.078 309.219 233.156 309.166 233.228 309.111C238.223 308.345 242.817 308.173 247.442 307.959Z" fill="#51606C"/>
<path d="M260.903 260.575C260.558 260.859 260.21 261.137 259.855 261.419C259.276 260.916 258.672 260.325 258.068 259.69C258.364 259.398 258.655 259.104 258.954 258.8C259.595 259.458 260.257 260.066 260.903 260.575Z" fill="#DA5618"/>
<path d="M245.884 309.343L245.138 310.561C243.597 312.281 242.003 314.012 240.356 315.733C240.168 315.73 239.965 315.698 239.756 315.638C237.695 315.054 232.919 314.761 233.424 310.923L233.662 309.241C236.128 309.143 240.926 309.029 245.884 309.343Z" fill="#7C8B9B"/>
<path d="M245.136 310.561L243.015 314.042C243.015 314.042 242.047 315.799 240.354 315.733C242.001 314.012 243.595 312.281 245.136 310.561Z" fill="#51606C"/>
<path d="M253.929 248.021C254.555 248.599 255.202 249.147 255.859 249.64C255.859 249.64 255.876 249.645 255.919 249.651C256.402 249.737 259.705 250.447 263.304 254.32C261.794 255.911 260.342 257.406 258.957 258.8C257.294 257.1 255.787 255.093 255.116 253.812C253.763 251.24 250.367 247.758 248.439 246.441C246.509 245.129 242.916 243.892 242.954 240.284C242.983 236.794 241.629 229.514 241.545 229.058C241.932 229.907 242.376 230.86 242.872 231.878C242.872 231.878 242.881 231.887 242.894 231.91C244.862 235.941 247.717 241.02 251.209 245.138C252.076 246.173 252.987 247.14 253.929 248.021Z" fill="#4871AD"/>
<path d="M295.645 127.841L294.015 130.828C290.042 129.226 286.247 128.213 282.778 127.601C271.863 122.884 263.104 121.732 263.104 121.732C268.144 123.285 272.77 125.016 277.013 126.883C272.976 126.591 269.673 126.81 267.438 127.085C264.514 126.207 261.69 125.507 258.967 124.962C249.344 121.195 238.303 121.728 238.303 121.728L240.055 119.328L240.056 119.322C258.046 115.665 278.532 117.582 295.645 127.841Z" fill="#95ABCB"/>
<path d="M258.957 258.8C258.657 259.104 258.367 259.398 258.071 259.69C255.846 257.342 253.567 254.301 252.072 252.185C249.645 248.757 242.747 244.866 242.747 244.866C241.008 243.79 240.863 230.889 240.863 230.889C240.863 230.889 240.377 228.313 239.834 224.961C239.896 225.117 240.488 226.701 241.539 229.037C241.539 229.037 241.543 229.044 241.545 229.058C241.629 229.514 242.983 236.794 242.954 240.284C242.916 243.892 246.509 245.129 248.439 246.441C250.367 247.758 253.763 251.24 255.116 253.812C255.787 255.093 257.294 257.1 258.957 258.8Z" fill="black"/>
<path d="M258.07 259.69C258.673 260.325 259.277 260.916 259.856 261.419C255.027 265.273 249.793 268.963 244.125 272.417C244.621 272.018 250.13 267.598 258.07 259.69Z" fill="#DF771F"/>
<path d="M239.755 315.638C239.964 315.698 240.168 315.73 240.355 315.733C237.593 318.643 234.682 321.549 231.648 324.401C234.497 321.672 237.205 318.753 239.746 315.648C239.747 315.642 239.753 315.644 239.755 315.638Z" fill="#E69A28"/>
<path d="M267.234 207.45C269.81 218.362 268.333 230.591 260.713 240.469C260.568 238.547 259.731 236.191 257.969 233.692C252.821 226.39 239.63 221.65 239.306 221.533C239.3 221.531 239.3 221.531 239.3 221.531C238.903 218.773 238.55 215.902 238.43 213.692C238.362 212.406 238.214 211.267 238.02 210.271L264.551 204.659C264.551 204.659 265.594 205.757 267.234 207.45Z" fill="#95ABCB"/>
<path d="M239.757 315.638C239.755 315.644 239.749 315.642 239.748 315.648C239.045 316.402 193.408 364.666 73.5695 363.33C73.5639 363.329 73.5506 363.331 73.5445 363.329C31.0929 365.052 -41.2754 343.948 -41.2754 343.948C-41.2754 343.948 86.4235 379.548 193.571 331.714C197.807 329.817 202.016 327.799 206.177 325.636C206.862 325.655 207.737 325.577 208.531 325.162C209.551 324.636 209.742 324.32 209.977 323.622C217.837 319.36 225.532 314.593 233.009 309.269C233.206 309.262 233.423 309.248 233.663 309.241L233.425 310.923C232.92 314.761 237.696 315.054 239.757 315.638Z" fill="#5885F9"/>
<path d="M260.714 240.469C261.005 244.245 258.616 246.346 255.217 244.58C255.197 244.029 255.111 243.403 254.933 242.682C256.547 242.762 256.617 240.745 256.617 240.745C256.931 233.837 240.249 224.515 239.722 224.227C239.718 224.22 239.712 224.218 239.712 224.218C239.575 223.352 239.436 222.447 239.307 221.533C239.631 221.65 252.821 226.39 257.969 233.692C259.732 236.191 260.569 238.547 260.714 240.469Z" fill="#252A30"/>
<path d="M258.531 176.563C256.486 178.868 254.438 181.141 252.391 183.364C251.027 182.093 249.669 180.931 248.311 179.863C254.909 171.311 259.66 162.751 262.989 155.537C267.665 160.587 273.477 167.381 276.934 173.326L265.588 202.043C263.863 197.423 261.401 193.189 258.388 189.659C256.492 187.434 254.588 185.434 252.693 183.65C256.268 179.415 258.316 176.835 258.531 176.563Z" fill="#AABDDD"/>
<path d="M256.104 290.268C250.386 295.69 244.473 300.692 238.394 305.308C234.265 305.518 229.101 306.663 223.482 308.281C226.068 304.155 227.238 300.336 227.525 296.868C236.185 291.993 245.309 288.402 256.104 290.268Z" fill="#142430"/>
<path d="M256.615 240.744C256.615 240.744 256.545 242.762 254.932 242.682C254.787 242.108 254.583 241.479 254.313 240.794C252.162 235.395 240.095 224.565 239.721 224.227C240.247 224.515 256.93 233.837 256.615 240.744Z" fill="#95ABCB"/>
<path d="M254.933 242.682C255.111 243.403 255.197 244.029 255.216 244.58C255.313 247.047 254.107 247.94 253.927 248.021C252.986 247.14 252.075 246.173 251.208 245.138C251.852 242.179 243.424 232.512 242.893 231.91C242.88 231.887 242.87 231.878 242.87 231.878C242.375 230.86 241.931 229.907 241.544 229.058C241.542 229.044 241.537 229.037 241.537 229.037C240.487 226.701 239.895 225.117 239.833 224.961C239.829 224.954 239.83 224.948 239.83 224.948C239.791 224.711 239.753 224.469 239.711 224.218C239.711 224.218 239.717 224.22 239.721 224.227C240.095 224.565 252.163 235.395 254.313 240.795C254.583 241.479 254.788 242.108 254.933 242.682Z" fill="#252A30"/>
<path d="M239.747 315.648C237.205 318.753 234.497 321.672 231.649 324.401C230.444 325.534 229.224 326.655 227.982 327.764C227.948 327.792 227.923 327.816 227.89 327.844C173.572 375.147 75.368 363.552 73.5684 363.33C193.407 364.666 239.044 316.402 239.747 315.648Z" fill="#DA5618"/>
<path d="M265.586 202.043C266.249 203.799 266.798 205.603 267.234 207.45C265.594 205.757 264.551 204.659 264.551 204.659L265.586 202.043Z" fill="#2D497A"/>
<path d="M265.587 202.043L264.551 204.659L238.02 210.271C237.291 206.535 235.946 204.756 235.946 204.756C235.658 204.311 235.358 203.887 235.055 203.475C242.611 195.371 248.635 188.45 252.691 183.65C254.586 185.434 256.49 187.434 258.387 189.659C261.399 193.189 263.861 197.423 265.587 202.043Z" fill="#A8B5C3"/>
<path d="M238.393 305.308C236.685 306.605 234.965 307.873 233.228 309.111C232.801 309.179 232.375 309.246 231.945 309.325C226.962 310.183 221.544 311.67 215.254 314.396C212.14 315.739 208.814 317.387 205.223 319.416C205.223 319.416 202.718 320.713 198.547 321.782C197.952 321.934 197.321 322.081 196.661 322.22C192.621 323.069 187.409 323.561 181.575 322.686C180.222 322.484 178.832 322.21 177.418 321.847C179.28 320.895 181.108 319.889 182.885 318.837C186.96 319.258 190.941 319.038 194.529 317.86C203.08 315.054 212.73 311.487 221.465 308.87C222.144 308.667 222.814 308.468 223.482 308.281C229.1 306.663 234.265 305.518 238.393 305.308Z" fill="#7C8B9B"/>
<path d="M227.98 327.764C229.222 326.655 230.443 325.534 231.648 324.401C230.45 325.554 229.229 326.675 227.98 327.764Z" fill="#EEBD2F"/>
<path d="M312.647 154.108C305.399 146.493 295.499 138.924 281.995 132.658C276.907 130.302 272.046 128.473 267.436 127.085C269.67 126.81 272.974 126.591 277.01 126.883C294.695 134.658 305.751 144.787 312.647 154.108Z" fill="#AABDDD"/>
<path d="M233.229 309.111C233.157 309.166 233.079 309.219 233.009 309.269C232.328 309.302 231.945 309.325 231.945 309.325C232.376 309.246 232.802 309.179 233.229 309.111Z" fill="#51606C"/>
<path d="M231.944 309.325C231.944 309.325 232.327 309.302 233.007 309.269C225.53 314.593 217.835 319.36 209.975 323.622C210.102 323.238 210.251 322.735 210.556 322.012C211.422 319.994 213.167 316.802 213.167 316.802C213.167 316.802 215.177 316.412 215.253 314.396C221.543 311.67 226.961 310.183 231.944 309.325Z" fill="#411CA9"/>
<path d="M171.046 359.171C171.714 359.091 195.105 356.288 224.215 342.302C194.792 361.265 164.17 371.424 138.585 376.84C92.4794 378.224 33.65 369.526 -41.2754 343.948C-41.2754 343.948 31.0929 365.052 73.5445 363.329C73.5506 363.331 73.5639 363.329 73.5695 363.33C75.3691 363.552 173.573 375.147 227.891 327.844C211.872 342.141 192.545 354.634 171.046 359.171Z" fill="#733BE4"/>
<path d="M242.895 231.91C243.426 232.512 251.854 242.179 251.21 245.138C247.718 241.02 244.862 235.941 242.895 231.91Z" fill="#95ABCB"/>
<path d="M282.777 127.601C280.731 127.234 278.801 127.007 277.012 126.883C272.769 125.016 268.143 123.285 263.104 121.732C263.104 121.732 271.862 122.884 282.777 127.601Z" fill="#DF771F"/>
<path d="M242.745 244.866C242.745 244.866 243.712 262.011 234.9 265.873C229.697 268.148 225.733 268.975 218.774 266.05C218.046 265.743 217.28 265.395 216.481 265.006C216.278 264.904 216.074 264.802 215.865 264.699C216.126 264.466 216.376 264.223 216.632 263.983C217.789 264.548 219.047 265.131 220.429 265.742C220.429 265.742 227.251 269.279 233.977 264.175C240.54 259.2 240.889 246.151 240.889 246.151C239.842 245.153 239.432 243.526 238.968 240.604L238.97 240.598C238.606 238.32 238.214 235.256 237.456 231.091C235.982 222.993 237.251 212.762 233.114 205.54C233.77 204.842 234.416 204.153 235.054 203.475C235.357 203.887 235.657 204.311 235.945 204.756C235.945 204.756 237.29 206.535 238.019 210.271C238.213 211.267 238.361 212.406 238.429 213.692C238.549 215.902 238.902 218.772 239.299 221.531C239.299 221.531 239.299 221.531 239.305 221.533C239.435 222.447 239.573 223.352 239.71 224.218C239.752 224.469 239.79 224.711 239.83 224.948C239.83 224.948 239.828 224.954 239.832 224.961C240.375 228.313 240.861 230.889 240.861 230.889C240.861 230.889 241.006 243.79 242.745 244.866Z" fill="#142430"/>
<path d="M227.524 296.868C227.237 300.336 226.067 304.155 223.481 308.281C222.814 308.468 222.143 308.667 221.465 308.87C221.465 308.87 225.31 305.809 225.99 297.744C226.5 297.45 227.01 297.155 227.524 296.868Z" fill="#172A3C"/>
<path d="M227.525 296.868C227.011 297.155 226.501 297.45 225.991 297.744C226.17 295.563 226.12 293.016 225.703 290.063C225.313 287.301 224.168 284.989 222.398 283.027C222.831 282.893 223.251 282.742 223.636 282.575C224.873 284.073 225.604 285.566 226.119 287.002C227.147 289.858 227.834 293.163 227.525 296.868Z" fill="#1E334F"/>
<path d="M240.89 246.151C240.89 246.151 240.541 259.2 233.977 264.175C227.252 269.279 220.43 265.742 220.43 265.742C224.369 267.02 227.516 266.201 230.125 264.075C231.974 262.573 233.55 260.417 234.941 257.896C237.798 252.724 235.606 248.247 234.31 245.849C235.868 244.133 237.418 242.384 238.969 240.604C239.433 243.526 239.843 245.153 240.89 246.151Z" fill="black"/>
<path d="M225.99 297.744C225.31 305.809 221.465 308.87 221.465 308.87C212.73 311.487 203.08 315.054 194.528 317.86C190.941 319.038 186.96 319.258 182.885 318.837C190.504 314.338 197.319 308.939 202.599 302.453C209.726 303.476 217.104 303.171 221.263 300.599C222.83 299.627 224.405 298.668 225.99 297.744Z" fill="#172A3C"/>
<path d="M269.838 136.688C269.838 136.688 269.161 139.675 267.455 144.546C267.208 144.444 266.959 144.349 266.709 144.259C267.859 141.77 268.908 139.239 269.838 136.688Z" fill="#DA016A"/>
<path d="M266.709 144.259C266.959 144.349 267.208 144.444 267.455 144.546C266.391 147.574 264.933 151.323 262.987 155.537C262.507 155.019 262.045 154.525 261.598 154.046C263.46 150.857 265.177 147.587 266.709 144.259Z" fill="#DF771F"/>
<path d="M197.943 291.843C197.685 292.001 193.963 294.27 187.399 297.702C183.735 295.497 182.361 292.889 185.458 290.456C185.611 290.336 185.769 290.218 185.927 290.106C193.996 284.417 213.151 286.007 222.397 283.027C224.167 284.989 225.312 287.301 225.702 290.063C226.119 293.016 226.169 295.563 225.99 297.744C224.405 298.668 222.829 299.626 221.262 300.599C217.104 303.171 209.726 303.476 202.599 302.453C204.86 299.671 206.84 296.689 208.478 293.498C208.478 293.498 205.379 296.865 199.11 301.841C195.159 301.029 191.479 299.83 188.711 298.425C191.828 296.342 194.906 294.154 197.943 291.843Z" fill="#243D62"/>
<path d="M234.312 245.849C235.608 248.247 237.8 252.724 234.943 257.896C233.552 260.417 231.976 262.573 230.127 264.075C232.829 260.113 232.625 255.214 230.645 249.832C231.874 248.525 233.097 247.197 234.312 245.849Z" fill="#33188E"/>
<path d="M301.661 123.346C260.334 94.1199 217.28 113.528 216.227 114.014C265.569 86.0667 301.041 122.7 301.661 123.346Z" fill="#E69A28"/>
<path d="M238.971 240.598L238.97 240.604C237.419 242.384 235.869 244.133 234.311 245.849C234.088 245.422 233.882 245.062 233.743 244.778C232.808 242.877 229.93 233.384 226.165 224.123C225.544 222.599 224.675 220.774 223.651 218.79C223.275 218.057 222.874 217.304 222.465 216.536C226.261 212.72 229.82 209.033 233.116 205.54C237.252 212.762 235.984 222.993 237.458 231.091C238.216 235.256 238.607 238.32 238.971 240.598Z" fill="#243D62"/>
<path d="M210.234 274.723C210.234 274.723 230.717 271.848 227.2 279.635C226.619 280.913 225.366 281.862 223.634 282.575C221.407 279.881 217.524 277.164 210.234 274.723Z" fill="#1E334F"/>
<path d="M261.597 154.046C262.045 154.525 262.507 155.019 262.987 155.537C259.658 162.751 254.906 171.311 248.308 179.863C247.165 178.962 246.02 178.136 244.883 177.368C250.886 170.298 256.725 162.435 261.597 154.046Z" fill="#E69A28"/>
<path d="M266.708 144.259C265.175 147.587 263.459 150.857 261.596 154.046C258.177 150.426 255.656 148.012 255.656 148.012C255.656 148.012 256.704 145.112 258.096 141.481C260.899 142.231 263.769 143.145 266.708 144.259Z" fill="#95ABCB"/>
<path d="M230.644 249.832C232.624 255.214 232.829 260.113 230.126 264.075C227.518 266.201 224.37 267.02 220.431 265.742C219.05 265.131 217.791 264.548 216.635 263.982C221.335 259.521 226.012 254.808 230.644 249.832Z" fill="#5728C3"/>
<path d="M258.529 176.563C258.314 176.835 256.266 179.415 252.691 183.65C252.592 183.553 252.494 183.456 252.389 183.364C254.436 181.141 256.484 178.868 258.529 176.563Z" fill="#DA016A"/>
<path d="M252.389 183.364C252.495 183.456 252.593 183.553 252.691 183.65C248.635 188.45 242.611 195.371 235.055 203.475C234.743 203.048 234.419 202.643 234.084 202.253C240.167 196.296 246.282 190.004 252.389 183.364Z" fill="#5885F9"/>
<path d="M215.253 314.396C215.176 316.412 213.166 316.802 213.166 316.802C213.166 316.802 211.422 319.994 210.556 322.012C210.25 322.735 210.101 323.238 209.974 323.622C208.714 324.306 207.446 324.975 206.174 325.636C205.493 325.606 205.008 325.482 205.008 325.482C205.008 325.482 203.125 325.024 201.116 324.523C199.1 324.027 198.545 321.782 198.545 321.782C202.716 320.713 205.221 319.416 205.221 319.416C208.812 317.387 212.138 315.739 215.253 314.396Z" fill="#51606C"/>
<path d="M233.742 244.778C233.881 245.063 234.086 245.422 234.31 245.849C233.095 247.197 231.872 248.525 230.642 249.832C228.203 243.172 223.051 235.775 217.35 228.523C221.582 222.48 223.65 218.79 223.65 218.79C224.674 220.774 225.542 222.599 226.164 224.123C229.929 233.384 232.807 242.877 233.742 244.778Z" fill="#5728C3"/>
<path d="M223.635 282.575C223.249 282.742 222.83 282.893 222.397 283.027C218.794 279.016 212.593 276.469 204.904 274.573C205.325 274.215 205.74 273.857 206.151 273.49C207.623 273.895 208.981 274.304 210.235 274.723C217.525 277.164 221.407 279.881 223.635 282.575Z" fill="#4871AD"/>
<path d="M258.965 124.962C261.688 125.507 264.512 126.207 267.436 127.085C265.39 127.333 264.241 127.629 264.241 127.629C262.594 126.56 260.804 125.683 258.965 124.962Z" fill="#A1C0F6"/>
<path d="M209.975 323.622C209.74 324.32 209.55 324.636 208.529 325.162C207.735 325.577 206.86 325.655 206.176 325.636C207.448 324.975 208.716 324.306 209.975 323.622Z" fill="#51606C"/>
<path d="M248.307 179.863C249.666 180.931 251.023 182.093 252.387 183.364C246.28 190.004 240.166 196.296 234.082 202.253C232.889 200.824 231.578 199.588 230.197 198.507C237.391 192.676 243.37 186.27 248.307 179.863Z" fill="#95ABCB"/>
<path d="M264.241 127.629C262.927 129.256 260.145 136.155 258.097 141.481C254.623 140.553 251.258 139.882 248.011 139.439C249.87 134.579 250.755 131.281 250.755 131.281C249.906 133.812 248.666 136.527 247.171 139.326C234.416 137.719 223.524 139.517 215.065 142.243C214.081 140.271 213.488 138.912 213.488 138.912C213.488 138.912 218.026 131.126 232.384 124.265C239.74 123.063 248.645 122.903 258.965 124.962C260.805 125.683 262.594 126.56 264.241 127.629Z" fill="#192A4E"/>
<path d="M255.657 148.012C255.657 148.012 258.177 150.426 261.597 154.046C256.725 162.435 250.886 170.298 244.882 177.368C239.218 173.57 233.701 171.424 228.561 170.381C235.01 164.634 239.958 156.819 243.522 149.684C250.146 148.589 255.657 148.012 255.657 148.012Z" fill="#BAD0FC"/>
<path d="M258.097 141.481C256.704 145.112 255.657 148.012 255.657 148.012C255.657 148.012 250.145 148.589 243.521 149.684C245.394 145.952 246.882 142.404 248.01 139.439C251.258 139.882 254.623 140.553 258.097 141.481Z" fill="#252A30"/>
<path d="M244.884 177.368C246.021 178.136 247.167 178.962 248.31 179.863C243.372 186.27 237.394 192.676 230.2 198.507C229.112 197.653 227.983 196.901 226.836 196.237C232.476 190.957 238.767 184.576 244.884 177.368Z" fill="#DF771F"/>
<path d="M218.774 266.05L218.682 266.263C218.682 266.263 217.451 272.754 211.554 272.745C209.955 272.743 208.455 272.707 207.123 272.65C208.23 271.684 209.328 270.71 210.425 269.716C214.58 269.257 216.141 267.486 216.48 265.006C217.279 265.395 218.046 265.743 218.774 266.05Z" fill="#4871AD"/>
<path d="M215.078 263.191C214.324 262.688 206.418 257.22 215.003 251.326C221.458 246.891 219.668 240.835 209.971 238.439C212.915 234.709 215.37 231.354 217.351 228.523C223.052 235.775 228.204 243.172 230.643 249.832C226.011 254.808 221.334 259.521 216.634 263.983C216.089 263.715 215.573 263.457 215.076 263.196L215.078 263.191Z" fill="#411CA9"/>
<path d="M235.053 203.475C234.416 204.153 233.77 204.842 233.114 205.54C232.835 205.041 232.526 204.565 232.186 204.105C232.816 203.493 233.449 202.876 234.083 202.253C234.418 202.643 234.742 203.048 235.053 203.475Z" fill="#DA016A"/>
<path d="M216.481 265.006C216.142 267.486 214.581 269.257 210.426 269.716C212.249 268.083 214.065 266.409 215.866 264.699C216.075 264.802 216.278 264.904 216.481 265.006Z" fill="#1E334F"/>
<path d="M216.634 263.982C216.378 264.223 216.127 264.466 215.867 264.699C211.924 262.704 207.069 259.68 200.778 255.328C200.778 255.328 199.542 254.137 197.57 252.907C197.796 252.665 198.022 252.421 198.247 252.178C198.843 252.465 199.456 252.802 200.074 253.19C202.047 254.433 203.62 255.699 205.436 257.079C207.792 258.876 210.541 260.858 215.076 263.196C215.573 263.456 216.089 263.715 216.634 263.982Z" fill="#241179"/>
<path d="M234.084 202.253C233.45 202.876 232.817 203.493 232.187 204.105C231.675 203.389 231.095 202.711 230.44 202.08C229.717 201.38 228.932 200.744 228.098 200.169C228.812 199.619 229.514 199.065 230.199 198.507C231.579 199.588 232.89 200.824 234.084 202.253Z" fill="#733BE4"/>
<path d="M238.301 121.728C238.301 121.728 249.343 121.195 258.966 124.962C248.646 122.903 239.741 123.063 232.385 124.265C234.197 123.399 236.163 122.545 238.301 121.728Z" fill="#411CA9"/>
<path d="M222.396 283.027C213.15 286.007 193.995 284.417 185.925 290.106L185.65 289.727C192.099 285.09 198.518 280.049 204.903 274.573C212.592 276.469 218.793 279.016 222.396 283.027Z" fill="#172A3C"/>
<path d="M232.186 204.105C232.526 204.565 232.836 205.041 233.114 205.54C229.818 209.033 226.259 212.72 222.463 216.535C222.077 215.818 221.679 215.097 221.273 214.362C224.892 211.061 228.53 207.646 232.186 204.105Z" fill="#5885F9"/>
<path d="M215.076 263.191L215.075 263.196C210.54 260.858 207.791 258.876 205.434 257.079C205.434 257.079 204.418 253.65 202.131 247.849C205.042 244.523 207.655 241.363 209.969 238.439C219.667 240.835 221.456 246.891 215.002 251.326C206.417 257.22 214.322 262.688 215.076 263.191Z" fill="#33188E"/>
<path d="M230.44 202.08C231.095 202.711 231.674 203.389 232.186 204.105C228.53 207.646 224.892 211.061 221.274 214.362C220.01 212.072 218.645 209.717 217.311 207.458C221.164 205.189 224.754 202.739 228.097 200.169C228.931 200.744 229.717 201.38 230.44 202.08Z" fill="#252A30"/>
<path d="M208.479 293.498C206.841 296.689 204.861 299.671 202.6 302.453C201.425 302.283 200.26 302.079 199.111 301.841C205.38 296.865 208.479 293.498 208.479 293.498Z" fill="#DA5618"/>
<path d="M215.866 264.699C214.065 266.409 212.249 268.083 210.425 269.716C209.31 269.846 208.004 269.877 206.49 269.799C199.58 269.446 192.982 270.537 192.534 270.616C192.529 270.609 192.529 270.609 192.528 270.615C190.609 270.303 188.583 269.999 186.439 269.711C184.633 269.469 182.934 269.201 181.342 268.913C187.427 263.433 192.829 258.022 197.569 252.907C199.541 254.137 200.777 255.328 200.777 255.328C207.068 259.68 211.923 262.704 215.866 264.699Z" fill="#142430"/>
<path d="M250.755 131.281C250.755 131.281 249.871 134.579 248.011 139.439C247.727 139.402 247.45 139.361 247.172 139.326C248.667 136.527 249.906 133.812 250.755 131.281Z" fill="#DA016A"/>
<path d="M219.171 176.524C222.597 175.03 225.72 172.905 228.561 170.381C233.701 171.424 239.218 173.57 244.882 177.368C238.765 184.576 232.474 190.957 226.834 196.237C223.331 194.217 219.652 193.018 216.423 192.31L216.411 192.306C215.967 192.149 212.045 186.938 212.045 186.938C212.653 180.784 214.426 174.816 216.413 169.729C219.112 169.472 222.037 169.461 225.131 169.829C221.683 173.831 219.289 176.394 219.171 176.524Z" fill="#A8B5C3"/>
<path d="M196.66 322.22C196.66 322.22 195.033 326.016 194.181 328.113C193.598 329.553 193.411 329.902 192.889 330.174C192.652 330.301 192.35 330.416 191.906 330.61C190.483 331.229 186.718 330.488 184.251 329.902C181.791 329.312 181.946 327.349 181.946 327.349L181.574 322.686C187.408 323.561 192.62 323.069 196.66 322.22Z" fill="#7C8B9B"/>
<path d="M247.172 139.326C247.451 139.361 247.727 139.402 248.012 139.439C246.883 142.404 245.396 145.952 243.523 149.684C242.509 149.855 241.473 150.038 240.422 150.229C242.922 146.605 245.264 142.898 247.172 139.326Z" fill="#E69A28"/>
<path d="M240.423 150.229C241.474 150.038 242.51 149.855 243.524 149.684C239.96 156.819 235.012 164.634 228.563 170.381C227.402 170.14 226.256 169.959 225.133 169.829C229.394 164.88 235.258 157.725 240.423 150.229Z" fill="#DF771F"/>
<path d="M230.198 198.507C229.513 199.065 228.811 199.619 228.097 200.169C227.029 199.421 225.884 198.771 224.715 198.207C225.409 197.57 226.116 196.912 226.834 196.237C227.982 196.901 229.11 197.653 230.198 198.507Z" fill="#DA5618"/>
<path d="M199.111 301.841C200.26 302.079 201.424 302.283 202.599 302.453C197.319 308.939 190.504 314.338 182.885 318.837C180.375 318.578 177.826 318.081 175.312 317.413C185.709 311.788 193.631 306.201 199.111 301.841Z" fill="#E69A28"/>
<path d="M210.425 269.716C209.328 270.71 208.231 271.684 207.124 272.65C203.539 272.512 201.136 272.251 201.136 272.251C198.553 271.676 195.698 271.13 192.533 270.616C192.982 270.537 199.579 269.446 206.489 269.799C208.003 269.877 209.31 269.846 210.425 269.716Z" fill="#2D497A"/>
<path d="M207.124 272.65C206.806 272.935 206.482 273.213 206.153 273.49C204.611 273.066 202.942 272.65 201.137 272.251C201.137 272.251 203.54 272.512 207.124 272.65Z" fill="#243D62"/>
<path d="M222.465 216.535C222.874 217.304 223.275 218.057 223.651 218.79C223.651 218.79 221.583 222.48 217.351 228.523C216.327 227.224 215.29 225.927 214.24 224.632C217.086 221.89 219.834 219.183 222.465 216.535Z" fill="#733BE4"/>
<path d="M192.528 270.615C192.53 270.609 192.53 270.609 192.534 270.616C195.699 271.13 198.554 271.676 201.137 272.251C202.943 272.65 204.612 273.066 206.153 273.49C205.742 273.857 205.327 274.215 204.906 274.573C197.601 272.76 188.95 271.538 179.898 270.203C180.385 269.77 180.864 269.342 181.342 268.913C182.935 269.201 184.633 269.469 186.439 269.711C188.584 269.999 190.61 270.303 192.528 270.615Z" fill="black"/>
<path d="M247.173 139.326C245.264 142.898 242.923 146.605 240.423 150.229C234.105 151.392 227.426 152.992 223.836 154.997C220.341 152.063 216.972 146.03 215.066 142.243C223.526 139.517 234.418 137.719 247.173 139.326Z" fill="#252A30"/>
<path d="M221.272 214.362C221.678 215.097 222.076 215.818 222.462 216.535C219.831 219.183 217.083 221.89 214.237 224.632C213.604 223.857 212.971 223.082 212.336 222.313C215.297 219.741 218.279 217.094 221.272 214.362Z" fill="#E69A28"/>
<path d="M188.711 298.425C191.479 299.83 195.158 301.029 199.11 301.841C193.63 306.201 185.709 311.788 175.312 317.413C171.029 316.288 166.846 314.676 163.088 312.959C171.739 308.846 180.336 304.04 188.711 298.425Z" fill="#172A3C"/>
<path d="M224.715 198.207C225.885 198.771 227.029 199.421 228.097 200.169C224.754 202.739 221.164 205.189 217.31 207.458C216.946 206.841 216.586 206.231 216.227 205.64C218.699 203.575 221.583 201.076 224.715 198.207Z" fill="#DA016A"/>
<path d="M226.835 196.237C226.117 196.912 225.41 197.57 224.716 198.207C217.592 194.779 209.344 194.461 209.344 194.461L207.066 191.301C207.066 191.301 211.119 191.139 216.412 192.306L216.424 192.31C219.653 193.018 223.332 194.217 226.835 196.237Z" fill="#243D62"/>
<path d="M214.239 224.632C215.289 225.927 216.326 227.224 217.349 228.523C215.369 231.354 212.914 234.709 209.97 238.439C207.37 237.79 204.205 237.408 200.48 237.387C205.279 233.11 209.876 228.832 214.239 224.632Z" fill="#733BE4"/>
<path d="M240.42 150.229C235.255 157.725 229.391 164.88 225.13 169.829C222.037 169.461 219.112 169.472 216.412 169.729C219.803 161.078 223.834 154.997 223.834 154.997C227.423 152.992 234.103 151.392 240.42 150.229Z" fill="#AABDDD"/>
<path d="M207.542 212.528C210.973 210.973 214.226 209.274 217.311 207.458C218.646 209.717 220.01 212.072 221.274 214.362C218.28 217.094 215.298 219.741 212.338 222.313C205.36 213.834 198.485 205.924 195.395 200.077C194.145 197.716 192.896 195.375 191.652 193.06C197.556 185.943 200.619 181.262 200.797 180.986C200.804 180.982 200.806 180.976 200.806 180.976C203.212 185.275 204.696 187.784 205.611 189.247C206.938 191.378 207.066 191.301 207.066 191.301L209.344 194.461C209.344 194.461 212.542 199.461 216.227 205.64C211.098 209.936 207.732 212.387 207.542 212.528Z" fill="#5728C3"/>
<path d="M209.971 238.439C207.657 241.363 205.044 244.523 202.133 247.849C201.156 245.365 199.938 242.449 198.471 239.175C199.147 238.582 199.818 237.983 200.482 237.387C204.207 237.408 207.371 237.79 209.971 238.439Z" fill="#5728C3"/>
<path d="M212.338 222.313C212.973 223.082 213.606 223.857 214.239 224.632C209.876 228.832 205.279 233.11 200.481 237.387C199.58 237.382 198.654 237.396 197.682 237.44C197.37 236.75 197.041 236.049 196.695 235.324C201.836 231.231 207.057 226.899 212.338 222.313Z" fill="#5885F9"/>
<path d="M209.344 194.461C209.344 194.461 217.592 194.779 224.715 198.207C221.583 201.076 218.699 203.575 216.227 205.64C212.542 199.461 209.344 194.461 209.344 194.461Z" fill="#172A3C"/>
<path d="M216.226 205.64C216.585 206.231 216.945 206.841 217.31 207.458C214.225 209.274 210.972 210.973 207.541 212.528C207.731 212.387 211.097 209.936 216.226 205.64Z" fill="#E69A28"/>
<path d="M240.056 119.322L240.054 119.328L238.302 121.728C236.164 122.545 234.198 123.399 232.386 124.265C218.669 126.492 210.325 132.31 208.178 133.959C212.838 130.169 218.829 126.349 226.33 123.377C230.651 121.667 235.265 120.297 240.056 119.322Z" fill="#A1C0F6"/>
<path d="M225.132 169.829C226.254 169.959 227.401 170.14 228.561 170.381C225.721 172.905 222.598 175.03 219.172 176.524C219.29 176.394 221.684 173.831 225.132 169.829Z" fill="#DA016A"/>
<path d="M197.943 291.843C194.905 294.154 191.828 296.342 188.711 298.425C188.246 298.186 187.811 297.95 187.398 297.702C193.963 294.27 197.685 292.001 197.943 291.843Z" fill="#E69A28"/>
<path d="M202.132 247.849C204.42 253.65 205.436 257.08 205.436 257.08C202.713 254.54 200.807 252.683 199.031 251.315C200.103 250.145 201.134 248.983 202.132 247.849Z" fill="#411CA9"/>
<path d="M205.434 257.08C203.618 255.7 202.046 254.433 200.072 253.19C199.455 252.802 198.841 252.465 198.246 252.178C198.51 251.889 198.774 251.6 199.03 251.315C200.805 252.683 202.712 254.54 205.434 257.08Z" fill="#411CA9"/>
<path d="M187.401 297.702C187.813 297.95 188.248 298.186 188.713 298.425C180.338 304.04 171.742 308.846 163.09 312.959C161.608 312.282 160.193 311.587 158.865 310.897C170.928 305.963 180.666 301.223 187.401 297.702Z" fill="#5F60EF"/>
<path d="M202.132 247.849C201.134 248.983 200.102 250.145 199.031 251.315C196.196 249.107 193.691 248.122 188.725 247.505C192.049 244.754 195.302 241.97 198.47 239.175C199.938 242.449 201.156 245.365 202.132 247.849Z" fill="#411CA9"/>
<path d="M199.029 251.315C198.773 251.6 198.509 251.889 198.246 252.178C193.861 250.014 190.283 250.273 189.93 250.304C189.91 250.305 189.897 250.308 189.897 250.308C188.973 250.272 188.031 250.344 187.077 250.568C186.305 250.751 185.425 250.89 184.469 250.99C185.906 249.835 187.319 248.675 188.723 247.505C193.689 248.122 196.194 249.107 199.029 251.315Z" fill="#241179"/>
<path d="M198.246 252.178C198.02 252.421 197.794 252.665 197.569 252.907C195.589 251.682 192.874 250.424 189.93 250.305C190.283 250.273 193.861 250.014 198.246 252.178Z" fill="#411CA9"/>
<path d="M182.884 318.837C181.106 319.889 179.278 320.895 177.416 321.847C177.095 321.762 176.763 321.674 176.438 321.582C174.401 321.005 172.476 320.428 170.672 319.848C172.268 319.04 173.814 318.23 175.311 317.413C177.825 318.081 180.374 318.578 182.884 318.837Z" fill="#EEBD2F"/>
<path d="M204.905 274.573C198.52 280.049 192.101 285.09 185.652 289.727C175.479 297.065 165.26 303.392 155.07 308.819C152.413 307.289 150.368 305.92 149.194 305.017C147.686 303.855 146.907 301.604 146.604 298.847C146.469 297.705 146.424 296.47 146.441 295.195C159.241 287.235 170.376 278.653 179.898 270.203C188.949 271.538 197.601 272.76 204.905 274.573Z" fill="#1E334F"/>
<path d="M176.44 321.582C176.765 321.674 177.097 321.762 177.418 321.847C143.748 339.136 98.7066 340.99 97.7363 341.029C128.588 337.562 152.832 328.869 170.674 319.848C172.478 320.428 174.402 321.005 176.44 321.582Z" fill="#733BE4"/>
<path d="M185.927 290.106C185.77 290.218 185.612 290.336 185.459 290.456C182.362 292.889 183.736 295.497 187.399 297.702C180.665 301.223 170.927 305.963 158.864 310.897C157.497 310.19 156.228 309.492 155.07 308.819C165.26 303.392 175.479 297.065 185.653 289.727L185.927 290.106Z" fill="#5885F9"/>
<path d="M200.481 237.387C199.817 237.983 199.145 238.582 198.469 239.175C198.222 238.609 197.959 238.033 197.682 237.44C198.654 237.396 199.579 237.382 200.481 237.387Z" fill="#5885F9"/>
<path d="M197.679 237.44C197.957 238.033 198.22 238.609 198.467 239.175C195.299 241.97 192.046 244.754 188.721 247.505C186.77 247.266 184.447 247.078 181.572 246.89C185.558 243.975 189.606 240.909 193.711 237.683C194.06 237.669 194.424 237.646 194.796 237.614C195.791 237.533 196.755 237.473 197.679 237.44Z" fill="#5885F9"/>
<path d="M212.046 186.938C212.046 186.938 215.968 192.149 216.412 192.306C211.119 191.139 207.067 191.301 207.067 191.301C207.067 191.301 206.938 191.378 205.611 189.246C205.611 189.246 209.166 187.432 212.046 186.938Z" fill="#252A30"/>
<path d="M163.087 312.959C166.845 314.676 171.028 316.288 175.311 317.413C173.813 318.23 172.267 319.04 170.671 319.848C168.307 319.097 166.14 318.339 164.147 317.561C162.086 316.758 160.213 315.932 158.514 315.069C160.043 314.385 161.565 313.682 163.087 312.959Z" fill="#51606C"/>
<path d="M197.18 218.96C195.224 220.838 193.248 222.68 191.24 224.48C188.124 218.682 184.441 212.403 180.127 205.877C184.732 201.131 188.577 196.766 191.652 193.06C192.896 195.375 194.145 197.716 195.395 200.077C198.484 205.924 205.36 213.834 212.337 222.313C207.057 226.899 201.835 231.231 196.694 235.324C195.154 232.041 193.374 228.477 191.357 224.708C194.975 221.275 196.973 219.183 197.18 218.96Z" fill="#411CA9"/>
<path d="M223.835 154.997C223.835 154.997 219.805 161.078 216.413 169.729C205.617 170.746 198.406 175.618 198.406 175.618L198.398 175.623C197.141 171.981 196.641 168.435 196.334 164.762C199.963 158.479 202.523 152.477 204.188 146.754C207.147 145.229 210.795 143.616 215.065 142.243C216.97 146.03 220.34 152.063 223.835 154.997Z" fill="#BAD0FC"/>
<path d="M189.928 250.304C192.872 250.424 195.588 251.682 197.567 252.907C192.827 258.022 187.425 263.433 181.34 268.913C174.784 267.732 169.982 266.203 166.469 264.593C172.631 260.257 178.648 255.686 184.467 250.99C185.424 250.89 186.303 250.751 187.076 250.568C188.03 250.343 188.972 250.272 189.896 250.308C189.896 250.308 189.909 250.305 189.928 250.304Z" fill="#1E334F"/>
<path d="M216.413 169.729C214.427 174.816 212.654 180.784 212.046 186.938C209.166 187.432 205.611 189.247 205.611 189.247C204.696 187.784 203.213 185.275 200.807 180.976C199.786 179.157 199.004 177.381 198.398 175.623L198.406 175.618C198.406 175.618 205.617 170.746 216.413 169.729Z" fill="#AABDDD"/>
<path d="M196.695 235.324C197.041 236.049 197.369 236.75 197.681 237.44C196.757 237.473 195.793 237.533 194.798 237.614C194.426 237.646 194.062 237.669 193.713 237.683C194.705 236.904 195.698 236.12 196.695 235.324Z" fill="#5885F9"/>
<path d="M191.358 224.708C193.375 228.477 195.155 232.041 196.696 235.324C195.699 236.12 194.705 236.904 193.714 237.683C187.946 237.949 184.639 236.341 182.186 233.05C185.911 229.792 188.983 226.963 191.358 224.708Z" fill="#33188E"/>
<path d="M138.584 376.84C153.495 376.394 167.072 374.898 179.431 372.569C151.81 381.366 118.406 385.808 78.1504 382.767C80.885 382.896 105.523 383.831 138.584 376.84Z" fill="#EEBD2F"/>
<path d="M232.385 124.265C218.027 131.126 213.489 138.912 213.489 138.912C211.359 138.905 208.359 140.287 205.381 142.057C205.866 139.793 206.209 137.584 206.428 135.419C206.818 135.079 207.216 134.74 207.624 134.404C207.624 134.404 207.808 134.243 208.177 133.959C210.324 132.31 218.668 126.492 232.385 124.265Z" fill="#BAD0FC"/>
<path d="M188.723 247.505C187.319 248.675 185.906 249.835 184.469 250.99C181.968 251.253 178.935 251.246 175.943 250.963C177.81 249.642 179.686 248.286 181.574 246.89C184.449 247.078 186.772 247.266 188.723 247.505Z" fill="#DA5618"/>
<path d="M181.341 268.913C180.862 269.342 180.383 269.77 179.897 270.203C179.722 270.178 179.541 270.152 179.36 270.126C172.662 269.138 167.931 267.603 164.586 265.909C165.217 265.473 165.842 265.036 166.47 264.593C169.982 266.203 174.784 267.732 181.341 268.913Z" fill="#172A3C"/>
<path d="M179.362 270.126C179.543 270.152 179.724 270.178 179.899 270.203C170.376 278.653 159.242 287.235 146.441 295.195C146.444 295.096 146.442 294.995 146.443 294.901C146.547 289.489 147.723 283.301 148.557 279.406C158.269 290.471 161.455 280.175 161.455 280.175C155.152 279.963 153.226 276.383 152.678 273.714C156.691 271.233 160.666 268.622 164.588 265.909C167.933 267.603 172.664 269.138 179.362 270.126Z" fill="#172A3C"/>
<path d="M191.238 224.48C193.247 222.68 195.223 220.838 197.179 218.96C196.971 219.183 194.974 221.275 191.356 224.708C191.314 224.633 191.274 224.553 191.238 224.48Z" fill="#E69A28"/>
<path d="M182.184 233.05C184.638 236.341 187.944 237.949 193.712 237.683C189.607 240.909 185.56 243.975 181.574 246.891C181.241 246.871 180.894 246.855 180.544 246.83C175.435 246.517 173.067 245.27 170.984 242.441C175.191 239.057 178.934 235.891 182.184 233.05Z" fill="#5728C3"/>
<path d="M240.764 112.369C239.078 112.568 226.425 114.451 206.691 127.607C206.638 126.244 206.537 124.898 206.389 123.584C216.116 117.844 227.62 113.441 240.764 112.369Z" fill="#DF771F"/>
<path d="M191.24 224.48C191.276 224.553 191.316 224.633 191.357 224.708C188.982 226.963 185.91 229.792 182.185 233.05C182.067 232.891 181.949 232.733 181.836 232.556C185.026 229.949 188.164 227.258 191.24 224.48Z" fill="#DA5618"/>
<path d="M213.488 138.912C213.488 138.912 214.081 140.271 215.065 142.243C210.795 143.616 207.146 145.229 204.188 146.754C204.65 145.167 205.05 143.6 205.38 142.057C208.359 140.287 211.358 138.905 213.488 138.912Z" fill="#95ABCB"/>
<path d="M200.806 180.976C200.806 180.976 200.804 180.982 200.797 180.986C197.334 184.488 193.93 187.85 190.577 191.076C188.727 187.648 186.869 184.269 185.021 180.943C185.393 180.497 185.758 180.048 186.119 179.593C190.198 174.491 193.575 169.541 196.333 164.762C196.641 168.435 197.141 171.981 198.398 175.623C199.003 177.381 199.785 179.157 200.806 180.976Z" fill="#5728C3"/>
<path d="M180.543 246.83C180.894 246.855 181.241 246.871 181.574 246.89C179.686 248.286 177.81 249.642 175.943 250.963C171.252 250.524 166.664 249.413 164.391 247.634C166.7 245.855 168.897 244.12 170.984 242.441C173.067 245.27 175.434 246.517 180.543 246.83Z" fill="#411CA9"/>
<path d="M164.149 317.561C163.419 319.36 158.353 317.925 155.763 316.753C155.586 316.671 155.423 316.581 155.275 316.483C156.36 316.019 157.44 315.547 158.516 315.069C160.215 315.932 162.088 316.758 164.149 317.561Z" fill="#51606C"/>
<path d="M163.087 312.959C161.566 313.682 160.043 314.385 158.514 315.069C157.019 314.306 155.656 313.518 154.418 312.685C155.935 312.087 157.415 311.491 158.862 310.897C160.19 311.587 161.605 312.282 163.087 312.959Z" fill="#DA5618"/>
<path d="M191.24 224.48C188.165 227.258 185.026 229.949 181.836 232.556C178.895 228.287 177.146 221.447 173.535 212.417C175.887 210.18 178.081 207.987 180.128 205.877C184.442 212.403 188.124 218.682 191.24 224.48Z" fill="#733BE4"/>
<path d="M181.836 232.556C181.949 232.733 182.067 232.891 182.185 233.05C178.935 235.891 175.192 239.057 170.985 242.441C170.763 242.141 170.54 241.82 170.324 241.477C174.225 238.62 178.071 235.646 181.836 232.556Z" fill="#E69A28"/>
<path d="M154.42 312.685C155.657 313.518 157.02 314.306 158.516 315.068C157.44 315.547 156.36 316.019 155.275 316.483C153.546 315.328 154.16 313.182 154.315 312.724C154.35 312.71 154.384 312.7 154.42 312.685Z" fill="#51606C"/>
<path d="M175.944 250.963C178.936 251.246 181.969 251.253 184.47 250.99C178.65 255.686 172.634 260.257 166.471 264.593C164.057 263.489 162.251 262.338 160.896 261.233C165.753 258.057 170.784 254.636 175.944 250.963Z" fill="#E69A28"/>
<path d="M200.799 180.986C200.621 181.261 197.558 185.943 191.654 193.06C191.297 192.395 190.939 191.735 190.58 191.076C193.933 187.85 197.337 184.488 200.799 180.986Z" fill="#DA5618"/>
<path d="M205.383 142.057C205.052 143.6 204.652 145.167 204.19 146.754C198.438 149.727 195.298 152.38 195.298 152.38C195.178 151.474 195.04 150.545 194.875 149.601C194.875 149.601 200.082 145.208 205.383 142.057Z" fill="#E69A28"/>
<path d="M190.579 191.076C190.938 191.735 191.296 192.395 191.654 193.06C188.578 196.766 184.733 201.131 180.128 205.877C179.448 204.85 178.755 203.82 178.041 202.778C182.127 199.089 186.303 195.193 190.579 191.076Z" fill="#DA5618"/>
<path d="M206.428 135.419C206.21 137.584 205.866 139.793 205.381 142.057C200.081 145.208 194.874 149.602 194.874 149.602C194.838 149.416 194.803 149.23 194.77 149.039L194.776 149.041C194.776 149.041 198.282 142.504 206.428 135.419Z" fill="#DA5618"/>
<path d="M158.864 310.897C157.417 311.491 155.937 312.087 154.42 312.685C153.423 312.02 152.503 311.327 151.67 310.596C152.805 310.021 153.938 309.427 155.07 308.819C156.227 309.492 157.497 310.19 158.864 310.897Z" fill="#5F60EF"/>
<path d="M204.187 146.754C202.521 152.477 199.962 158.479 196.333 164.762C196 160.868 195.88 156.822 195.295 152.38C195.295 152.38 198.435 149.727 204.187 146.754Z" fill="#733BE4"/>
<path d="M154.315 312.724C144.046 316.769 132.292 320.856 119.402 324.439C130.051 320.735 140.837 316.167 151.67 310.596C152.503 311.327 153.423 312.02 154.42 312.685C154.384 312.7 154.35 312.71 154.315 312.724Z" fill="#5885F9"/>
<path d="M154.314 312.724C154.159 313.182 153.545 315.328 155.275 316.483C125.821 329.067 96.2799 334.04 72.9824 335.741C87.9655 333.578 103.535 329.963 119.402 324.439C132.292 320.856 144.046 316.769 154.314 312.724Z" fill="#733BE4"/>
<path d="M195.297 152.38C195.882 156.822 196.002 160.868 196.335 164.762C193.576 169.541 190.199 174.491 186.12 179.593C185.759 180.048 185.394 180.497 185.023 180.943C183.529 178.25 182.036 175.595 180.549 172.967C190.215 161.135 195.297 152.38 195.297 152.38Z" fill="#EEBD2F"/>
<path d="M206.39 123.584C206.538 124.898 206.639 126.244 206.692 127.607C202.123 130.657 197.168 134.313 191.878 138.69C191.8 138.479 191.722 138.269 191.637 138.057C191.406 137.458 191.021 136.49 190.52 135.207C195.115 131.136 200.419 127.109 206.39 123.584Z" fill="#EEBD2F"/>
<path d="M166.47 264.593C165.843 265.036 165.218 265.473 164.587 265.909C162.223 264.713 160.553 263.437 159.373 262.225C159.874 261.897 160.382 261.564 160.895 261.233C162.25 262.338 164.056 263.489 166.47 264.593Z" fill="#DA5618"/>
<path d="M164.391 247.633C166.665 249.413 171.253 250.524 175.943 250.963C170.784 254.636 165.752 258.057 160.896 261.233C156.946 258.001 156.886 255.138 156.9 254.734C156.897 254.721 156.899 254.715 156.901 254.709C157.031 254.094 157.18 253.503 157.335 252.933C159.789 251.132 162.14 249.36 164.391 247.633Z" fill="#243D62"/>
<path d="M155.07 308.819C153.938 309.427 152.804 310.021 151.67 310.596C149.923 309.104 148.511 307.469 147.378 305.65C145.781 303.097 146.597 298.845 146.597 298.845L146.603 298.847C146.907 301.604 147.686 303.855 149.194 305.017C150.367 305.92 152.412 307.289 155.07 308.819Z" fill="#DA5618"/>
<path d="M181.838 232.556C178.072 235.646 174.226 238.62 170.325 241.477C168.062 237.983 165.829 232.472 160.338 224.083C165.164 220.127 169.562 216.2 173.536 212.417C177.148 221.447 178.896 228.287 181.838 232.556Z" fill="#411CA9"/>
<path d="M170.324 241.477C170.54 241.82 170.763 242.141 170.985 242.441C168.898 244.12 166.701 245.855 164.391 247.634C163.93 247.271 163.563 246.885 163.312 246.463C165.671 244.842 168.011 243.179 170.324 241.477Z" fill="#E69A28"/>
<path d="M152.677 273.714C153.225 276.383 155.151 279.963 161.455 280.176C161.455 280.176 158.268 290.471 148.557 279.406C148.731 278.59 148.891 277.87 149.025 277.288C149.156 276.691 149.3 276.162 149.452 275.672C150.53 275.03 151.605 274.376 152.677 273.714Z" fill="#243D62"/>
<path d="M194.872 149.602C195.038 150.545 195.176 151.474 195.295 152.38C195.295 152.38 190.213 161.135 180.547 172.967C180.379 172.675 180.211 172.383 180.043 172.09C184.476 161.71 186.273 151.892 186.598 143.22C188.391 141.627 190.154 140.12 191.876 138.69C193.289 142.419 194.183 145.839 194.768 149.039C194.802 149.23 194.837 149.416 194.872 149.602Z" fill="#E69A28"/>
<path d="M178.041 202.778C178.755 203.82 179.447 204.85 180.128 205.877C178.082 207.987 175.887 210.18 173.536 212.417C173.001 211.093 172.437 209.723 171.814 208.312C173.858 206.521 175.936 204.677 178.041 202.778Z" fill="#E69A28"/>
<path d="M190.578 191.076C186.302 195.193 182.126 199.089 178.04 202.778C176.147 200.01 174.14 197.202 172.01 194.386C176.722 190.191 181.081 185.714 185.022 180.943C186.87 184.269 188.728 187.648 190.578 191.076Z" fill="#5728C3"/>
<path d="M26.9765 335.227C27.9022 335.345 46.3772 337.677 72.983 335.741C-8.34398 347.498 -72.2949 316.533 -72.2949 316.533C26.3268 346.04 98.2236 325.123 146.441 295.195C146.424 296.47 146.469 297.705 146.603 298.847L146.598 298.845C146.598 298.845 145.782 303.097 147.379 305.65C148.512 307.469 149.923 309.104 151.67 310.596C140.838 316.167 130.051 320.735 119.403 324.439C92.4586 331.928 60.5555 337.204 26.9765 335.227Z" fill="#DF771F"/>
<path d="M160.896 261.233C160.382 261.564 159.874 261.897 159.373 262.225C156.386 259.159 156.552 256.491 156.552 256.491C156.655 255.887 156.771 255.3 156.9 254.734C156.886 255.138 156.946 258.001 160.896 261.233Z" fill="#243D62"/>
<path d="M170.324 241.477C168.012 243.179 165.671 244.842 163.313 246.463C163.125 246.152 163.004 245.83 162.949 245.488C162.949 245.488 162.566 244.608 161.788 243.103C160.846 241.293 159.334 238.576 157.218 235.4C157.22 235.394 157.22 235.394 157.22 235.394C156.045 233.632 154.686 231.723 153.139 229.749C155.634 227.867 158.04 225.971 160.337 224.083C165.828 232.472 168.06 237.983 170.324 241.477Z" fill="#733BE4"/>
<path d="M159.376 262.225C160.556 263.437 162.226 264.713 164.589 265.909C160.667 268.622 156.692 271.233 152.679 273.714C152.335 272.093 152.5 270.804 152.5 270.804L152.047 270.544C152.551 269.696 152.974 268.8 153.204 267.499C153.325 266.831 153.454 266.328 153.608 265.895C155.498 264.713 157.424 263.491 159.376 262.225Z" fill="#EEBD2F"/>
<path d="M163.313 246.463C163.563 246.885 163.931 247.271 164.392 247.633C162.141 249.36 159.79 251.132 157.336 252.933C157.636 251.808 157.966 250.773 158.319 249.838C158.325 249.84 158.321 249.832 158.321 249.832C160 248.728 161.666 247.607 163.313 246.463Z" fill="#DA5618"/>
<path d="M162.949 245.488C163.003 245.83 163.125 246.152 163.313 246.463C161.665 247.607 160 248.728 158.32 249.832C159.931 245.454 161.788 243.103 161.788 243.103C162.566 244.608 162.949 245.488 162.949 245.488Z" fill="#1E334F"/>
<path d="M178.041 202.778C175.936 204.677 173.858 206.521 171.815 208.312C170.492 205.279 168.94 202.036 167.062 198.595C168.749 197.224 170.4 195.823 172.011 194.385C174.141 197.202 176.148 200.01 178.041 202.778Z" fill="#33188E"/>
<path d="M191.638 138.057C191.722 138.269 191.801 138.479 191.879 138.69C190.157 140.12 188.394 141.627 186.602 143.22C186.66 141.706 186.679 140.226 186.647 138.787C187.88 137.6 189.166 136.404 190.52 135.207C191.022 136.49 191.407 137.458 191.638 138.057Z" fill="#DF771F"/>
<path d="M180.549 172.967C182.036 175.595 183.529 178.25 185.023 180.943C181.081 185.714 176.722 190.191 172.01 194.385C171.123 193.201 170.216 192.022 169.285 190.836C173.113 185.601 176.161 180.42 178.567 175.359C179.248 174.548 179.912 173.752 180.549 172.967Z" fill="#EEBD2F"/>
<path d="M171.814 208.312C172.437 209.723 173.001 211.093 173.536 212.417C169.561 216.2 165.163 220.127 160.337 224.083C159.522 222.842 158.637 221.539 157.664 220.172C162.226 216.505 166.944 212.556 171.814 208.312Z" fill="#733BE4"/>
<path d="M180.042 172.09C180.21 172.383 180.378 172.675 180.546 172.967C179.91 173.752 179.246 174.548 178.564 175.359C179.087 174.265 179.578 173.175 180.042 172.09Z" fill="#E69A28"/>
<path d="M156.902 254.709C156.9 254.715 156.899 254.721 156.901 254.734C156.772 255.3 156.656 255.887 156.554 256.491C155.361 263.558 154.313 263.914 153.607 265.895C117.53 288.497 92.3238 297.043 92.3238 297.043C111.236 294.977 130.748 286.83 149.452 275.672C149.301 276.162 149.157 276.691 149.026 277.288C148.892 277.87 148.732 278.59 148.557 279.406C147.723 283.301 146.547 289.489 146.444 294.901C95.8616 311.224 51.2378 315.523 13.2715 313.319C73.5401 306.292 124.459 277.03 157.337 252.933C157.181 253.503 157.032 254.094 156.902 254.709Z" fill="#EEBD2F"/>
<path d="M159.373 262.225C157.422 263.491 155.496 264.713 153.605 265.895C154.311 263.914 155.358 263.558 156.552 256.491C156.552 256.491 156.386 259.159 159.373 262.225Z" fill="#172A3C"/>
<path d="M152.498 270.804C152.498 270.804 152.333 272.093 152.677 273.714C151.605 274.376 150.529 275.03 149.451 275.672C150.245 273.113 151.247 271.879 152.045 270.544L152.498 270.804Z" fill="#EEBD2F"/>
<path d="M161.788 243.103C161.788 243.103 159.93 245.454 158.32 249.832C158.32 249.832 158.325 249.84 158.318 249.838C97.4354 290.04 26.3873 305.549 -9.50154 311.149C-90.6012 300.393 -135.498 261.152 -135.498 261.152C-111.406 271.74 -88.6297 279.139 -67.2341 283.997C-67.2284 283.999 -67.2227 284 -67.2227 284C75.2191 316.361 156.392 236.213 157.218 235.4C159.333 238.576 160.846 241.293 161.788 243.103Z" fill="#5885F9"/>
<path d="M153.204 267.499C152.973 268.8 152.55 269.696 152.047 270.544C151.248 271.879 150.247 273.113 149.453 275.672C130.749 286.83 111.236 294.977 92.3242 297.043C92.3242 297.043 117.53 288.497 153.608 265.895C153.454 266.328 153.324 266.831 153.204 267.499Z" fill="#DA5618"/>
<path d="M158.318 249.838C157.965 250.773 157.635 251.808 157.335 252.933C124.457 277.03 73.5384 306.292 13.2698 313.319C5.3872 312.86 -2.20302 312.12 -9.50195 311.149C26.3869 305.549 97.435 290.04 158.318 249.838Z" fill="#733BE4"/>
<path d="M186.6 143.22C186.275 151.892 184.478 161.71 180.045 172.09C178.058 168.594 176.077 165.161 174.107 161.8C176.504 157.613 178.382 153.506 179.804 149.483C182.119 147.266 184.384 145.181 186.6 143.22Z" fill="#5885F9"/>
<path d="M180.043 172.09C179.579 173.175 179.088 174.265 178.565 175.359C175.208 179.354 171.353 183.642 167.034 188.023C166.418 187.253 165.788 186.491 165.151 185.728C163.664 183.94 162.135 182.033 160.58 180.019C166.255 173.821 170.705 167.74 174.105 161.8C176.075 165.161 178.056 168.594 180.043 172.09Z" fill="#EEBD2F"/>
<path d="M190.519 135.207C189.165 136.404 187.879 137.6 186.646 138.787C186.484 129.155 184.607 121.218 182.883 115.908C186.106 124.051 188.923 131.169 190.519 135.207Z" fill="#5885F9"/>
<path d="M186.645 138.787C186.676 140.226 186.658 141.706 186.599 143.22C184.382 145.181 182.117 147.266 179.803 149.483C180.442 147.689 180.984 145.911 181.438 144.152C183.027 142.415 184.767 140.613 186.645 138.787Z" fill="#DF771F"/>
<path d="M169.284 190.836C170.215 192.022 171.123 193.201 172.01 194.385C170.399 195.823 168.748 197.224 167.061 198.595C166.554 197.662 166.025 196.722 165.465 195.754C166.822 194.107 168.089 192.466 169.284 190.836Z" fill="#733BE4"/>
<path d="M69.6651 277.651C69.1152 277.778 46.1514 282.859 6.0261 282.544C89.0009 268.446 140.044 216.503 140.044 216.503C141.561 217.698 142.998 218.932 144.356 220.182C146.205 222.198 148.123 224.171 150.103 226.099C113.981 253.748 88.4234 263.335 77.2653 266.494C75.207 267.008 73.1268 267.491 71.0167 267.946C71.3163 267.906 73.4476 267.576 77.2653 266.494C108.312 258.775 133.661 244.476 153.138 229.749C154.685 231.723 156.044 233.632 157.219 235.394C157.219 235.394 157.219 235.394 157.218 235.4C156.392 236.213 75.2192 316.361 -67.2227 284C-47.2017 286.562 -28.2845 286.58 -10.6316 284.797C16.0407 286.61 45.9776 285.819 69.6651 277.651Z" fill="#E69A28"/>
<path d="M167.062 198.595C168.94 202.036 170.492 205.279 171.814 208.312C166.944 212.556 162.226 216.505 157.664 220.172C155.606 217.257 153.173 214.047 150.27 210.509C151.258 209.899 152.237 209.273 153.207 208.639C158.046 205.502 162.68 202.156 167.062 198.595Z" fill="#411CA9"/>
<path d="M178.567 175.359C176.161 180.42 173.113 185.601 169.285 190.836C168.547 189.9 167.798 188.96 167.035 188.023C171.355 183.642 175.209 179.354 178.567 175.359Z" fill="#E69A28"/>
<path d="M181.9 142.277C184.582 130.597 183.568 119.727 180.543 109.998C181.34 112.011 182.121 113.988 182.881 115.908C184.606 121.218 186.483 129.155 186.645 138.787C184.767 140.613 183.027 142.415 181.438 144.152C181.608 143.53 181.761 142.902 181.9 142.277Z" fill="#E69A28"/>
<path d="M181.438 144.152C180.983 145.911 180.442 147.689 179.803 149.483C177.152 152.023 174.44 154.734 171.664 157.629C171.523 157.394 171.382 157.16 171.246 156.933C173.323 153.917 176.744 149.299 181.438 144.152Z" fill="#DA5618"/>
<path d="M151.812 103.306C150.273 107.987 148.386 112.48 146.228 116.778C144.025 113.421 141.872 110.177 139.762 107.047C139.769 107.042 139.771 107.036 139.773 107.031C142.976 102.584 145.894 98.2379 148.506 94.1502C160.011 108.514 172.205 125.272 181.902 142.277C181.762 142.902 181.609 143.53 181.439 144.152C176.746 149.299 173.325 153.917 171.248 156.933C168.377 152.082 165.542 147.373 162.74 142.811C165.473 130.864 164.838 122.283 164.838 122.283C164.02 128.578 162.7 134.455 160.98 139.949C156.027 131.937 151.204 124.376 146.573 117.309C150.046 109.408 151.643 103.904 151.812 103.306Z" fill="#411CA9"/>
<path d="M165.464 195.754C166.024 196.722 166.554 197.662 167.06 198.595C162.678 202.157 158.044 205.502 153.205 208.639C157.882 204.347 161.944 200.036 165.464 195.754Z" fill="#DA5618"/>
<path d="M167.036 188.023C167.798 188.96 168.548 189.9 169.285 190.836C168.09 192.466 166.823 194.107 165.466 195.754C164.732 194.493 163.951 193.2 163.127 191.881C164.472 190.589 165.776 189.303 167.036 188.023Z" fill="#5728C3"/>
<path d="M157.664 220.172C158.637 221.539 159.522 222.842 160.337 224.083C158.04 225.971 155.634 227.867 153.139 229.749C152.199 228.549 151.191 227.329 150.109 226.101L150.111 226.095C152.583 224.206 155.098 222.235 157.664 220.172Z" fill="#E69A28"/>
<path d="M179.803 149.483C178.38 153.506 176.502 157.613 174.106 161.8C173.293 160.397 172.478 159.006 171.664 157.629C174.44 154.734 177.152 152.023 179.803 149.483Z" fill="#5728C3"/>
<path d="M165.153 185.728C165.789 186.491 166.42 187.253 167.036 188.023C165.777 189.303 164.472 190.589 163.127 191.882C161.42 189.166 159.506 186.341 157.35 183.417C158.468 182.279 159.547 181.149 160.582 180.019C162.136 182.033 163.666 183.94 165.153 185.728Z" fill="#733BE4"/>
<path d="M163.127 191.882C163.951 193.2 164.732 194.493 165.466 195.754C161.945 200.036 157.884 204.347 153.207 208.639C152.237 209.273 151.257 209.899 150.269 210.509C149.103 209.094 147.863 207.627 146.539 206.104C152.603 201.496 158.134 196.668 163.127 191.882Z" fill="#EEBD2F"/>
<path d="M168.902 160.558C169.83 159.561 170.752 158.587 171.663 157.628C172.477 159.006 173.292 160.397 174.105 161.8C170.704 167.74 166.254 173.821 160.58 180.019C157.86 176.515 155.062 172.694 152.211 168.639C157.823 159.563 160.977 150.488 162.738 142.811C165.54 147.373 168.375 152.082 171.245 156.933C169.76 159.102 168.966 160.444 168.902 160.558Z" fill="#5728C3"/>
<path d="M163.126 191.881C158.134 196.668 152.603 201.496 146.539 206.104C144.634 203.909 142.548 201.601 140.277 199.17C140.486 198.766 140.695 198.361 140.896 197.96C142.233 196.916 143.561 195.856 144.87 194.779C149.513 190.959 153.659 187.168 157.349 183.417C159.505 186.341 161.419 189.166 163.126 191.881Z" fill="#5885F9"/>
<path d="M171.248 156.933C171.384 157.16 171.525 157.394 171.665 157.628C170.754 158.587 169.832 159.561 168.904 160.558C168.968 160.444 169.762 159.102 171.248 156.933Z" fill="#192A4E"/>
<path d="M157.664 220.172C155.098 222.235 152.584 224.206 150.111 226.095C148.375 224.123 146.458 222.126 144.356 220.182C143.113 218.84 141.903 217.468 140.719 216.092C143.971 214.305 147.156 212.449 150.269 210.509C153.173 214.047 155.606 217.257 157.664 220.172Z" fill="#5728C3"/>
<path d="M150.109 226.101C151.191 227.329 152.199 228.549 153.139 229.749C133.661 244.476 108.312 258.775 77.2656 266.494C88.4237 263.335 113.981 253.748 150.103 226.099L150.109 226.101Z" fill="#DA5618"/>
<path d="M150.11 226.095L150.109 226.101L150.103 226.099C148.122 224.171 146.205 222.198 144.355 220.182C146.457 222.126 148.374 224.123 150.11 226.095Z" fill="#411CA9"/>
<path d="M180.544 109.998C183.569 119.727 184.583 130.597 181.901 142.277C172.204 125.272 160.011 108.514 148.506 94.1502C153.228 86.7791 156.963 80.257 159.541 75.5142C165.368 81.748 171.761 89.967 176.477 99.7236C177.645 102.681 178.83 105.669 179.992 108.606C179.996 108.614 179.996 108.614 180 108.622C180.183 109.081 180.361 109.539 180.544 109.998Z" fill="#5728C3"/>
<path d="M180.32 109.277C180.145 108.901 180.031 108.681 179.998 108.622C179.994 108.614 179.994 108.614 179.99 108.606C178.828 105.669 177.643 102.681 176.475 99.7236C177.941 102.76 179.244 105.95 180.32 109.277Z" fill="#411CA9"/>
<path d="M160.58 180.019C159.545 181.149 158.466 182.279 157.348 183.417C155.82 181.354 154.174 179.238 152.387 177.071C151.469 175.952 150.555 174.796 149.646 173.598C149.828 172.672 149.893 172.176 149.893 172.176C150.716 170.998 151.483 169.817 152.212 168.639C155.063 172.694 157.861 176.515 160.58 180.019Z" fill="#411CA9"/>
<path d="M146.539 206.104C147.863 207.627 149.102 209.094 150.269 210.509C147.155 212.449 143.971 214.305 140.718 216.092C139.683 214.877 138.665 213.648 137.674 212.408C140.745 210.376 143.7 208.266 146.539 206.104Z" fill="#E69A28"/>
<path d="M152.388 177.071C154.175 179.238 155.821 181.354 157.349 183.417C153.66 187.168 149.513 190.959 144.87 194.779C143.561 195.856 142.233 196.916 140.896 197.96C146.815 186.32 148.991 177.024 149.648 173.598C150.556 174.796 151.47 175.952 152.388 177.071Z" fill="#33188E"/>
<path d="M178.275 88.3958L172.029 72.6633C173.369 73.601 174.825 74.6591 176.353 75.838C177.131 79.9522 177.781 84.1426 178.275 88.3958Z" fill="#E69A28"/>
<path d="M162.738 142.811C160.976 150.488 157.822 159.563 152.21 168.639C151.254 167.277 150.292 165.894 149.324 164.485C154.033 157.336 158.078 149.19 160.978 139.949C161.562 140.898 162.151 141.849 162.738 142.811Z" fill="#E69A28"/>
<path d="M144.356 220.182C142.998 218.932 141.561 217.698 140.044 216.503C140.034 216.494 140.024 216.485 140.014 216.476C140.25 216.348 140.487 216.221 140.718 216.092C141.902 217.468 143.112 218.84 144.356 220.182Z" fill="#411CA9"/>
<path d="M140.719 216.092C140.488 216.221 140.251 216.348 140.015 216.476C139.553 216.113 139.053 215.708 138.52 215.269C138.5 215.25 138.485 215.234 138.464 215.221C137.765 214.635 137.05 213.993 136.311 213.307C136.771 213.011 137.226 212.708 137.675 212.408C138.665 213.648 139.684 214.877 140.719 216.092Z" fill="#DA5618"/>
<path d="M162.738 142.811C162.152 141.849 161.562 140.898 160.979 139.949C162.698 134.455 164.018 128.578 164.836 122.283C164.836 122.283 165.471 130.864 162.738 142.811Z" fill="#E69A28"/>
<path d="M138.519 215.269C139.03 215.702 139.529 216.106 140.014 216.476C133.983 219.751 127.748 222.769 121.381 225.548C123.539 223.263 125.543 220.972 127.399 218.689C130.447 216.982 133.406 215.193 136.264 213.338C137.047 214.024 137.779 214.651 138.464 215.221C138.485 215.234 138.499 215.25 138.519 215.269Z" fill="#EEBD2F"/>
<path d="M152.214 168.639C151.485 169.817 150.718 170.998 149.895 172.176C149.691 172.476 149.48 172.779 149.262 173.082C148.246 171.734 147.244 170.334 146.25 168.886C147.306 167.461 148.329 165.996 149.328 164.485C150.295 165.894 151.258 167.277 152.214 168.639Z" fill="#DA5618"/>
<path d="M149.646 173.598C148.99 177.024 146.814 186.32 140.895 197.96C140.556 198.228 140.218 198.49 139.875 198.749C139.64 198.495 139.397 198.244 139.157 197.988C138.747 197.552 138.332 197.115 137.926 196.667C142.536 189.49 146.483 181.731 149.474 173.367C149.533 173.447 149.588 173.519 149.646 173.598Z" fill="#EEBD2F"/>
<path d="M149.647 173.598C149.589 173.519 149.534 173.447 149.475 173.367C149.619 172.969 149.756 172.576 149.894 172.176C149.894 172.176 149.828 172.672 149.647 173.598Z" fill="#411CA9"/>
<path d="M149.895 172.176C149.756 172.576 149.62 172.969 149.475 173.367C149.402 173.272 149.333 173.183 149.262 173.082C149.479 172.779 149.69 172.476 149.895 172.176Z" fill="#411CA9"/>
<path d="M149.262 173.082C149.334 173.183 149.403 173.272 149.476 173.367C146.485 181.731 142.538 189.49 137.928 196.667C136.08 194.67 134.27 192.603 132.51 190.474C139.482 185.051 144.957 179.116 149.262 173.082Z" fill="#33188E"/>
<path d="M146.538 206.104C143.7 208.266 140.745 210.376 137.673 212.408C136.67 211.171 135.692 209.909 134.729 208.64C136.852 205.373 138.691 202.201 140.277 199.17C142.547 201.601 144.633 203.91 146.538 206.104Z" fill="#EEBD2F"/>
<path d="M137.675 212.408C137.227 212.708 136.771 213.011 136.311 213.307C135.393 212.452 134.444 211.531 133.465 210.538C133.896 209.902 134.32 209.27 134.73 208.64C135.693 209.909 136.671 211.171 137.675 212.408Z" fill="#2D497A"/>
<path d="M139.875 198.749C140.218 198.489 140.556 198.228 140.895 197.96C140.693 198.361 140.485 198.766 140.276 199.17C140.14 199.031 140.011 198.888 139.875 198.749Z" fill="#DA5618"/>
<path d="M136.308 213.307C136.293 213.315 136.277 213.329 136.262 213.338C135.347 212.539 134.364 211.672 133.326 210.732C133.375 210.671 133.419 210.601 133.462 210.538C134.441 211.531 135.391 212.452 136.308 213.307Z" fill="#411CA9"/>
<path d="M139.876 198.749C140.012 198.888 140.141 199.031 140.278 199.17C138.692 202.201 136.853 205.373 134.73 208.64C133.827 207.443 132.935 206.231 132.068 205.02C132.357 204.645 132.646 204.263 132.925 203.877C132.925 203.877 132.931 203.879 132.932 203.874C135.284 202.213 137.598 200.505 139.876 198.749Z" fill="#DA5618"/>
<path d="M139.155 197.988C139.396 198.244 139.639 198.495 139.874 198.749C137.596 200.505 135.281 202.213 132.93 203.874C134.668 201.545 136.334 199.139 137.924 196.667C138.33 197.115 138.746 197.552 139.155 197.988Z" fill="#DA016A"/>
<path d="M160.979 139.949C158.079 149.19 154.035 157.336 149.326 164.485C144.166 156.96 138.891 148.801 133.732 140.518C139.491 132.099 143.683 123.876 146.572 117.309C151.203 124.376 156.026 131.937 160.979 139.949Z" fill="#5728C3"/>
<path d="M149.326 164.485C148.328 165.996 147.304 167.461 146.249 168.886C141.076 161.383 136.17 152.72 131.6 143.557C132.332 142.542 133.046 141.528 133.733 140.518C138.892 148.801 144.166 156.96 149.326 164.485Z" fill="#5728C3"/>
<path d="M146.249 168.886C147.243 170.334 148.245 171.734 149.262 173.082C144.956 179.116 139.482 185.051 132.509 190.474C131.499 189.26 130.507 188.026 129.525 186.776C135.363 181.771 141.118 175.846 146.249 168.886Z" fill="#E69A28"/>
<path d="M133.327 210.732C134.365 211.672 135.348 212.539 136.263 213.338C133.405 215.193 130.447 216.982 127.398 218.689C129.575 216.008 131.545 213.349 133.327 210.732Z" fill="#E69A28"/>
<path d="M134.728 208.64C134.318 209.27 133.894 209.902 133.463 210.538C132.449 209.511 131.407 208.413 130.336 207.257C130.921 206.52 131.496 205.774 132.067 205.02C132.934 206.231 133.826 207.443 134.728 208.64Z" fill="#DA016A"/>
<path d="M133.465 210.538C133.421 210.601 133.377 210.671 133.328 210.732C132.275 209.781 131.159 208.763 129.992 207.68C130.113 207.539 130.223 207.395 130.338 207.257C131.408 208.413 132.451 209.511 133.465 210.538Z" fill="#EEBD2F"/>
<path d="M176.476 99.7236C171.761 89.967 165.368 81.748 159.541 75.5141C162.258 70.5281 163.704 67.5023 163.704 67.5023C163.704 67.5023 169.889 83.117 176.476 99.7236Z" fill="#E69A28"/>
<path d="M176.353 75.838C174.825 74.6591 173.369 73.601 172.03 72.6633L137.723 -13.7168C138.209 -13.0654 166.879 25.7783 176.353 75.838Z" fill="#5885F9"/>
<path d="M137.925 196.667C136.335 199.139 134.668 201.545 132.93 203.874C132.929 203.879 132.923 203.877 132.923 203.877C132.553 204.143 132.185 204.402 131.811 204.66C129.637 201.599 127.579 198.483 125.633 195.329C128.069 193.769 130.359 192.148 132.507 190.474C134.267 192.603 136.077 194.67 137.925 196.667Z" fill="#733BE4"/>
<path d="M131.812 204.66C132.186 204.402 132.554 204.143 132.924 203.877C132.646 204.263 132.356 204.645 132.068 205.02C131.984 204.896 131.898 204.778 131.812 204.66Z" fill="#E69A28"/>
<path d="M131.813 204.66C131.899 204.778 131.985 204.896 132.069 205.02C131.498 205.774 130.923 206.52 130.338 207.257C130.046 206.937 129.749 206.614 129.447 206.284C130.244 205.751 131.031 205.209 131.813 204.66Z" fill="#EEBD2F"/>
<path d="M133.325 210.732C131.543 213.349 129.573 216.008 127.396 218.689C122.771 221.272 117.927 223.655 112.877 225.767C118.906 220.308 124.713 214.286 129.989 207.68C131.155 208.763 132.272 209.781 133.325 210.732Z" fill="#DA5618"/>
<path d="M130.337 207.257C130.223 207.395 130.113 207.539 129.992 207.68C129.635 207.347 129.267 207.004 128.895 206.661C129.08 206.538 129.265 206.415 129.447 206.284C129.748 206.614 130.045 206.937 130.337 207.257Z" fill="#DA5618"/>
<path d="M131.812 204.66C131.029 205.209 130.242 205.751 129.446 206.284C127.047 203.642 124.529 200.709 121.951 197.572C123.212 196.838 124.44 196.089 125.634 195.329C127.58 198.483 129.638 201.599 131.812 204.66Z" fill="#411CA9"/>
<path d="M129.447 206.284C129.265 206.415 129.08 206.538 128.894 206.661C126.236 204.183 123.335 201.431 120.303 198.502C120.859 198.196 121.407 197.881 121.952 197.572C124.53 200.709 127.047 203.642 129.447 206.284Z" fill="#5885F9"/>
<path d="M128.896 206.661C129.269 207.004 129.636 207.347 129.993 207.68C124.717 214.286 118.91 220.309 112.881 225.767C100.81 230.818 87.5365 234.317 73.1465 235.294C92.082 227.944 111.346 218.504 128.896 206.661Z" fill="#E69A28"/>
<path d="M127.4 218.689C125.543 220.972 123.54 223.263 121.381 225.548C116.296 227.763 111.128 229.829 105.924 231.753C108.266 229.839 110.592 227.846 112.88 225.767C117.93 223.655 122.775 221.272 127.4 218.689Z" fill="#DA5618"/>
<path d="M129.526 186.776C130.507 188.026 131.499 189.26 132.509 190.474C130.361 192.148 128.071 193.769 125.636 195.329C124.89 194.109 124.157 192.892 123.439 191.66C125.463 190.139 127.504 188.511 129.526 186.776Z" fill="#DA5618"/>
<path d="M122.016 -14.2848L163.706 67.5023L144.663 62.1073C144.659 62.0997 144.659 62.0997 144.653 62.0982C140.007 55.5027 136.293 48.8265 133.339 42.303C119.769 12.3873 122.016 -14.2848 122.016 -14.2848Z" fill="#DA5618"/>
<path d="M144.662 62.1074L163.705 67.5024C163.705 67.5024 162.258 70.5282 159.541 75.5142C151.565 66.9533 144.662 62.1074 144.662 62.1074Z" fill="#E69A28"/>
<path d="M146.247 168.886C141.115 175.846 135.361 181.771 129.523 186.776C123.684 179.322 118.363 171.307 113.58 163.224C120.704 157.154 126.664 150.347 131.598 143.557C136.168 152.72 141.074 161.383 146.247 168.886Z" fill="#411CA9"/>
<path d="M151.811 103.307C151.642 103.904 150.045 109.408 146.572 117.309C146.46 117.127 146.341 116.949 146.227 116.778C148.384 112.48 150.272 107.987 151.811 103.307Z" fill="#EEBD2F"/>
<path d="M146.227 116.778C146.342 116.948 146.461 117.126 146.572 117.309C143.683 123.876 139.492 132.099 133.733 140.518C133.255 139.749 132.777 138.981 132.299 138.212C137.514 131.733 142.319 124.574 146.227 116.778Z" fill="#EEBD2F"/>
<path d="M123.437 191.66C124.155 192.892 124.888 194.109 125.634 195.329C124.44 196.089 123.212 196.838 121.951 197.572C121.13 196.574 120.303 195.556 119.467 194.523C120.779 193.609 122.108 192.657 123.437 191.66Z" fill="#E69A28"/>
<path d="M119.403 324.439C103.536 329.963 87.9661 333.578 72.9831 335.741C46.3773 337.677 27.9023 335.345 26.9766 335.227C60.5555 337.204 92.4587 331.928 119.403 324.439Z" fill="#5F60EF"/>
<path d="M129.524 186.776C127.503 188.511 125.461 190.139 123.438 191.66C118.448 183.136 114.239 174.358 110.684 165.595C111.67 164.814 112.632 164.027 113.581 163.224C118.364 171.307 123.685 179.322 129.524 186.776Z" fill="#733BE4"/>
<path d="M121.952 197.572C121.406 197.881 120.859 198.196 120.302 198.502C119.39 197.629 118.464 196.734 117.535 195.831C118.177 195.405 118.821 194.966 119.467 194.523C120.303 195.556 121.131 196.574 121.952 197.572Z" fill="#E69A28"/>
<path d="M159.54 75.5141C156.961 80.257 153.226 86.7791 148.504 94.1502C130.958 72.2509 115.006 55.9257 111.943 52.8381L144.66 62.1073C144.66 62.1073 151.563 66.9532 159.54 75.5141Z" fill="#733BE4"/>
<path d="M123.44 191.66C122.11 192.657 120.781 193.609 119.469 194.523C113.729 187.386 107.77 179.427 102.111 171.605C105.136 169.734 107.989 167.721 110.686 165.595C114.241 174.358 118.45 183.136 123.44 191.66Z" fill="#5728C3"/>
<path d="M119.469 194.523C118.822 194.966 118.178 195.405 117.537 195.831C110.665 189.17 103.26 181.824 96.3398 174.891C98.3261 173.855 100.255 172.759 102.111 171.605C107.77 179.427 113.729 187.386 119.469 194.523Z" fill="#5885F9"/>
<path d="M117.536 195.831C118.466 196.734 119.391 197.629 120.304 198.502C111.239 203.521 100.344 207.739 87.248 210.655C88.1092 210.404 101.81 206.285 117.536 195.831Z" fill="#DA5618"/>
<path d="M133.732 140.518C133.045 141.528 132.331 142.542 131.599 143.557C131.136 142.623 130.67 141.676 130.211 140.731C130.916 139.902 131.611 139.065 132.298 138.212C132.776 138.981 133.254 139.749 133.732 140.518Z" fill="#DF771F"/>
<path d="M112.881 225.767C110.593 227.846 108.266 229.839 105.924 231.753C60.4306 248.551 12.1561 254.405 -9.80859 256.314C10.5655 254.111 41.4068 247.626 73.146 235.294C87.5359 234.317 100.81 230.818 112.881 225.767Z" fill="#EEBD2F"/>
<path d="M146.228 116.778C142.32 124.574 137.515 131.733 132.3 138.212C129.765 134.102 127.258 129.981 124.811 125.896C130.285 119.697 135.296 113.273 139.762 107.047C141.872 110.177 144.026 113.421 146.228 116.778Z" fill="#733BE4"/>
<path d="M105.922 231.753C111.126 229.829 116.294 227.763 121.38 225.548C105.33 242.519 80.4532 259.178 42.0234 268.059C42.0234 268.059 75.3675 256.746 105.922 231.753Z" fill="#733BE4"/>
<path d="M130.213 140.731C130.672 141.676 131.138 142.623 131.601 143.557C126.667 150.347 120.707 157.154 113.583 163.224C112.849 161.988 112.127 160.749 111.418 159.513C117.679 154.165 124.172 147.891 130.213 140.731Z" fill="#DA016A"/>
<path d="M148.505 94.1502C145.892 98.2379 142.974 102.584 139.771 107.031C134.713 87.9042 124.111 69.358 111.781 52.7923L111.944 52.8382C115.007 55.9257 130.959 72.2509 148.505 94.1502Z" fill="#411CA9"/>
<path d="M132.298 138.212C131.611 139.065 130.916 139.902 130.211 140.731C128.017 136.215 125.903 131.591 123.879 126.943C124.189 126.598 124.496 126.246 124.809 125.896C127.256 129.981 129.763 134.102 132.298 138.212Z" fill="#5728C3"/>
<path d="M139.773 107.031C139.771 107.036 139.769 107.042 139.762 107.047C114.672 69.7492 96.6582 48.5073 96.6582 48.5073L111.783 52.7924C124.113 69.358 134.715 87.9043 139.773 107.031Z" fill="#5728C3"/>
<path d="M144.661 62.1073L111.944 52.8382C111.644 52.5277 111.468 52.3523 111.428 52.316C111.424 52.3084 111.418 52.3069 111.418 52.3069C83.0763 14.4286 45.8652 -12.9479 45.8652 -12.9479C45.8652 -12.9479 51.6768 -10.9787 60.5245 -7.1992C81.335 12.7168 143.675 61.3389 144.652 62.0982C144.657 62.0998 144.657 62.0998 144.661 62.1073Z" fill="#733BE4"/>
<path d="M139.762 107.047C135.296 113.273 130.284 119.697 124.81 125.896C123.198 123.201 121.616 120.527 120.06 117.898C120.058 117.885 120.053 117.877 120.05 117.87C105.623 82.5903 96.6582 48.5073 96.6582 48.5073C96.6582 48.5073 114.672 69.7492 139.762 107.047Z" fill="#411CA9"/>
<path d="M123.879 126.943C125.904 131.592 128.017 136.215 130.211 140.731C124.17 147.891 117.678 154.165 111.416 159.513C108.79 154.907 106.331 150.31 104.057 145.81C111.162 140.206 117.8 133.729 123.879 126.943Z" fill="#411CA9"/>
<path d="M124.809 125.896C124.496 126.246 124.189 126.598 123.879 126.943C122.569 123.932 121.292 120.912 120.059 117.898C121.615 120.527 123.196 123.201 124.809 125.896Z" fill="#5728C3"/>
<path d="M113.581 163.224C112.633 164.027 111.67 164.814 110.684 165.595C110.131 164.228 109.591 162.858 109.068 161.494C109.847 160.849 110.63 160.187 111.416 159.513C112.126 160.749 112.847 161.988 113.581 163.224Z" fill="#DA5618"/>
<path d="M109.07 161.494C109.592 162.858 110.132 164.228 110.685 165.595C107.989 167.721 105.136 169.734 102.111 171.605C101.381 170.595 100.657 169.588 99.9375 168.587C102.831 166.473 105.904 164.102 109.07 161.494Z" fill="#EEBD2F"/>
<path d="M111.416 159.513C110.629 160.187 109.846 160.849 109.068 161.494C107.083 156.305 105.318 151.14 103.756 146.052C103.86 145.974 103.958 145.889 104.056 145.81C106.33 150.31 108.79 154.907 111.416 159.513Z" fill="#733BE4"/>
<path d="M120.06 117.898C121.294 120.912 122.57 123.932 123.88 126.943C117.801 133.729 111.163 140.206 104.058 145.81C103.737 145.174 103.421 144.539 103.11 143.912C90.7969 102.591 91.4574 66.865 91.4574 66.865C91.4574 66.865 103.918 90.4465 120.049 117.87C120.053 117.877 120.058 117.885 120.06 117.898Z" fill="#411CA9"/>
<path d="M120.047 117.87C103.916 90.4464 91.4551 66.8649 91.4551 66.8649L96.6558 48.5073C96.6558 48.5073 105.621 82.5902 120.047 117.87Z" fill="#DA016A"/>
<path d="M99.9386 168.587C100.658 169.588 101.382 170.595 102.112 171.605C100.255 172.759 98.3268 173.855 96.3405 174.891C95.5983 174.148 94.8617 173.406 94.1289 172.672C95.9516 171.439 97.9 170.073 99.9386 168.587Z" fill="#DF771F"/>
<path d="M109.07 161.494C105.904 164.102 102.831 166.473 99.9374 168.587C96.5901 163.915 93.3749 159.33 90.418 155.05C95.0158 152.453 99.4694 149.414 103.757 146.052C105.319 151.14 107.085 156.305 109.07 161.494Z" fill="#5728C3"/>
<path d="M90.4176 155.05C93.3746 159.33 96.5898 163.915 99.9371 168.587C97.8986 170.073 95.9501 171.439 94.1274 172.672C92.6285 171.169 91.1595 169.693 89.736 168.255C86.6492 165.143 83.7517 162.203 81.1504 159.566C84.2997 158.276 87.3869 156.762 90.4176 155.05Z" fill="#411CA9"/>
<path d="M133.336 42.303C136.291 48.8265 140.005 55.5027 144.651 62.0982C143.674 61.3389 81.334 12.7168 60.5234 -7.19923C79.9922 1.12088 114.157 18.2042 133.336 42.303Z" fill="#411CA9"/>
<path d="M104.059 145.81C103.962 145.889 103.863 145.974 103.759 146.052C103.535 145.336 103.318 144.622 103.111 143.912C103.423 144.539 103.738 145.174 104.059 145.81Z" fill="#733BE4"/>
<path d="M103.109 143.912C103.316 144.622 103.534 145.336 103.757 146.052C99.4689 149.414 95.0153 152.453 90.4175 155.05C80.5992 140.864 73.5762 129.977 73.5762 129.977L78.0441 114.208C87.2731 122.904 95.708 131.971 101.394 140.429C101.952 141.578 102.519 142.741 103.109 143.912Z" fill="#5728C3"/>
<path d="M94.125 172.672C94.8577 173.406 95.5943 174.148 96.3366 174.891C91.226 177.55 85.6924 179.775 79.7168 181.437C79.9948 181.296 85.8101 178.298 94.125 172.672Z" fill="#EEBD2F"/>
<path d="M103.11 143.912C102.52 142.741 101.953 141.578 101.395 140.429C89.5488 115.937 83.2949 95.676 83.2949 95.676L91.4575 66.865C91.4575 66.865 90.797 102.591 103.11 143.912Z" fill="#733BE4"/>
<path d="M30.4316 114.757L89.7352 168.255C88.7975 167.67 45.8071 140.732 30.4316 114.757Z" fill="#E69A28"/>
<path d="M83.2949 95.676C83.2949 95.676 89.5488 115.937 101.395 140.429C95.7088 131.971 87.2739 122.904 78.0449 114.208L83.2949 95.676Z" fill="#5885F9"/>
<path d="M90.4194 155.05C87.3887 156.762 84.3015 158.276 81.1522 159.566C81.1465 159.564 81.1465 159.564 81.1465 159.564C73.7508 152.052 68.7754 146.931 68.7754 146.931L73.5781 129.977C73.5781 129.977 80.6012 140.864 90.4194 155.05Z" fill="#411CA9"/>
<path d="M111.782 52.7923L96.657 48.5073L69.8656 16.0872L45.8652 -12.948C45.8652 -12.948 83.0763 14.4285 111.418 52.3068C111.418 52.3068 111.424 52.3083 111.428 52.3159C111.546 52.4746 111.664 52.6333 111.782 52.7923Z" fill="#406BE0"/>
<path d="M117.275 16.3599L93.7453 -8.03241L85.2188 -38.1091L117.275 16.3599Z" fill="#E69A28"/>
<path d="M6.0268 282.544C46.1521 282.859 69.1159 277.778 69.6658 277.651C45.9783 285.819 16.0414 286.61 -10.6309 284.797C-4.94527 284.226 0.611482 283.468 6.0268 282.544Z" fill="#5885F9"/>
<path d="M73.5748 129.977L68.7721 146.931L46.4805 109.229L73.5748 129.977Z" fill="#5885F9"/>
<path d="M78.044 114.208L73.576 129.977C69.4807 121.927 66.2242 111.888 63.4082 101.202C68.3219 105.347 73.2867 109.732 78.044 114.208Z" fill="#5728C3"/>
<path d="M83.293 95.676L78.043 114.208C73.2858 109.732 68.3209 105.347 63.4073 101.202C55.1629 69.8628 50.7207 33.0043 39.9492 24.7065C54.9061 33.4126 66.4236 53.6853 73.8171 70.3449C73.8212 70.3521 73.8254 70.3597 73.8239 70.3657C80.0055 84.2865 83.293 95.676 83.293 95.676Z" fill="#5885F9"/>
<path d="M91.4556 66.865L83.293 95.676C83.293 95.676 80.0055 84.2865 73.8239 70.3657C73.8254 70.3596 73.8213 70.352 73.8171 70.3448L54.4434 14.3073C67.7718 41.8663 91.4556 66.865 91.4556 66.865Z" fill="#411CA9"/>
<path d="M96.6586 48.5073L91.4578 66.8649L69.8672 16.0872L96.6586 48.5073Z" fill="#5885F9"/>
<path d="M69.8656 16.0872L91.4562 66.8649C91.4562 66.8649 67.7725 41.8663 54.444 14.3073L54.4376 14.2884C50.0488 5.21463 46.7897 -4.128 45.8652 -12.948L69.8656 16.0872Z" fill="#733BE4"/>
<path d="M73.5757 129.977L46.4813 109.229L23.8379 70.9318C24.3482 71.2768 43.4509 84.3383 63.4078 101.202C66.2239 111.888 69.4804 121.927 73.5757 129.977Z" fill="#733BE4"/>
<path d="M68.7733 146.931L4.0332 76.7257L46.4817 109.229L68.7733 146.931Z" fill="#5728C3"/>
<path d="M-9.50094 311.149C-2.20201 312.12 5.38821 312.86 13.2709 313.319C-1.55806 315.049 -16.953 315.434 -32.7852 314.064C-32.2523 314.021 -23.5789 313.35 -9.50094 311.149Z" fill="#EEBD2F"/>
<path d="M6.02615 282.544C0.610825 283.468 -4.94593 284.226 -10.6315 284.797C-47.0593 282.32 -77.3965 274.986 -77.3965 274.986C-44.7477 280.467 -16.6276 282.371 6.02615 282.544Z" fill="#DA5618"/>
<path d="M27.4727 39.7596C41.8333 48.5804 52.0654 78.9221 52.0654 78.9221C28.9872 57.4746 27.4727 39.7596 27.4727 39.7596Z" fill="#E69A28"/>
</g>
</svg>
