<svg xmlns="http://www.w3.org/2000/svg" width="408" height="313" fill="none" viewBox="0 0 408 313"><path fill="#EEBD2F" d="M0 312.143L56.656 289.09L70.0166 299.384L0 312.143Z"/><path fill="#DF771F" d="M0 312.143L70.0166 299.384L86.5955 312.143H0Z"/><path fill="#E69A28" d="M70.0176 299.384L145.626 285.601L86.5966 312.143L70.0176 299.384Z"/><path fill="#DF771F" d="M86.5957 312.143L145.625 285.601L167.14 288.7L86.5957 312.143Z"/><path fill="#E69A28" d="M86.5957 312.143L167.14 288.7L185.202 291.303L86.5957 312.143Z"/><path fill="#5F60EF" d="M86.5957 312.143L185.202 291.303L207.639 294.536L180.983 312.143H86.5957Z"/><path fill="#E69A28" d="M170.147 281.249L166.162 274.469L247.772 249.892L170.147 281.249Z"/><path fill="#EEBD2F" d="M185.203 291.303L167.141 288.7L255.325 263.031L225.385 282.809L185.203 291.303Z"/><path fill="#EEBD2F" d="M178.711 256.863L264.824 218.971L240.298 239.879L178.711 256.863Z"/><path fill="#EEBD2F" d="M180.982 312.143L207.639 294.536L213.773 295.422L180.982 312.143Z"/><path fill="#483DE2" d="M180.982 312.143L213.773 295.422L251.835 300.904L234.025 312.143H180.982Z"/><path fill="#612FD2" d="M185.201 291.303L225.384 282.81L207.639 294.536L185.201 291.303Z"/><path fill="#733BE4" d="M207.639 294.536L225.384 282.81L247.771 278.085L213.773 295.422L207.639 294.536Z"/><path fill="#5885F9" d="M213.773 295.422L247.772 278.085L262.863 293.943L251.835 300.903L213.773 295.422Z"/><path fill="#483DE2" d="M225.385 282.809L255.324 263.031L306.457 248.153L247.772 278.085L225.385 282.809Z"/><path fill="#5F60EF" d="M234.025 312.143L251.835 300.904L272.293 303.851L234.025 312.143Z"/><path fill="#483DE2" d="M234.025 312.143L272.293 303.851L329.84 312.143H234.025Z"/><path fill="#483DE2" d="M262.863 293.943L247.771 278.085L308.284 265.293L262.863 293.943Z"/><path fill="#5885F9" d="M247.771 249.891L282.94 218.585L287.063 224.635L247.771 249.891Z"/><path fill="#5F60EF" d="M247.771 278.085L306.457 248.154L320.951 257.299L308.284 265.293L247.771 278.085Z"/><path fill="#483DE2" d="M251.836 300.904L262.864 293.943L272.295 303.851L251.836 300.904Z"/><path fill="#DA5618" d="M255.324 263.031L295.048 236.796L312.173 237.924L306.457 248.154L255.324 263.031Z"/><path fill="#5885F9" d="M262.861 293.943L308.283 265.293L321.156 293.264L272.292 303.851L262.861 293.943Z"/><path fill="#5F60EF" d="M272.293 303.851L321.158 293.264L329.84 312.143L272.293 303.851Z"/><path fill="#E69A28" d="M282.942 218.585L273.121 204.169L289.347 212.878L282.942 218.585Z"/><path fill="#DA016A" d="M282.939 218.585L289.344 212.878L287.062 224.635L282.939 218.585Z"/><path fill="#5885F9" d="M287.062 224.635L289.344 212.878L298.467 225.071L287.062 224.635Z"/><path fill="#EEBD2F" d="M295.623 184.133L324.709 148.858L307.794 187.597L295.623 184.133Z"/><path fill="#DF771F" d="M301.324 202.424L307.793 187.597L311.774 188.725L301.324 202.424Z"/><path fill="#733BE4" d="M301.324 202.424L311.774 188.725L324.707 192.406L301.324 202.424Z"/><path fill="#612FD2" d="M306.457 248.153L312.173 237.924L347.925 240.279L320.952 257.299L306.457 248.153Z"/><path fill="#E69A28" d="M312.802 236.796L306.457 211.134L334.055 198.817L312.811 236.796H312.802Z"/><path fill="#E69A28" d="M307.793 187.597L324.707 148.858V171.772L311.774 188.725L307.793 187.597Z"/><path fill="#5F60EF" d="M321.157 293.264L308.283 265.293L327.277 261.28L342.892 271.13L336.937 289.853L321.157 293.264Z"/><path fill="#612FD2" d="M308.283 265.292L320.95 257.299L327.277 261.28L308.283 265.292Z"/><path fill="#DF771F" d="M324.707 192.406L311.773 188.724L324.707 171.772V192.406Z"/><path fill="#5885F9" d="M312.172 237.923L312.81 236.796L334.054 198.817L347.189 192.954L359.861 217.812L353.906 236.509L347.924 240.279L312.172 237.923Z"/><path fill="#733BE4" d="M320.951 257.299L347.925 240.279L352.608 240.59L347.378 257.032L327.278 261.28L320.951 257.299Z"/><path fill="#483DE2" d="M329.84 312.143L321.158 293.264L336.938 289.853L329.84 312.143Z"/><path fill="#DF771F" d="M324.705 171.772V148.858L365.769 117.938L324.705 171.772Z"/><path fill="#5885F9" d="M324.705 192.406V171.772L365.769 117.938L324.705 192.406Z"/><path fill="#EEBD2F" d="M324.705 148.857L345.802 80.9809L365.769 117.938L324.705 148.857Z"/><path fill="#5885F9" d="M342.894 271.13L327.279 261.28L347.38 257.032L342.894 271.13Z"/><path fill="#5885F9" d="M329.84 312.143L336.938 289.853L363.466 284.1L329.84 312.143Z"/><path fill="#483DE2" d="M329.84 312.143L363.466 284.1L407.932 312.143H329.84Z"/><path fill="#DF771F" d="M347.19 192.955L334.055 198.817L342.493 183.734L347.19 192.955Z"/><path fill="#733BE4" d="M336.938 289.853L342.892 271.13L363.466 284.1L336.938 289.853Z"/><path fill="#DA016A" d="M342.494 183.734L365.772 117.938L390.679 97.2974L390.734 97.5095L342.499 183.728L342.494 183.734Z"/><path fill="#733BE4" d="M342.494 183.734L342.499 183.728L381.208 150.733L371.18 182.245L347.191 192.955L342.494 183.734Z"/><path fill="#DF771F" d="M342.498 183.728L390.734 97.5094L394.007 110.518L381.207 150.733L342.498 183.728Z"/><path fill="#483DE2" d="M342.895 271.13L347.38 257.031L376.695 250.839L384.174 265.529L363.468 284.1L342.895 271.13Z"/><path fill="#483DE2" d="M359.861 217.813L347.189 192.955L371.179 182.245L359.861 217.813Z"/><path fill="#5885F9" d="M347.379 257.032L352.608 240.59L372.126 241.874L376.694 250.839L347.379 257.032Z"/><path fill="#483DE2" d="M347.926 240.279L353.908 236.51L352.609 240.59L347.926 240.279Z"/><path fill="#612FD2" d="M352.607 240.59L353.907 236.509L365.619 229.12L372.125 241.873L352.607 240.59Z"/><path fill="#5F60EF" d="M353.908 236.51L359.863 217.813L365.62 229.12L353.908 236.51Z"/><path fill="#733BE4" d="M365.619 229.121L359.861 217.813L371.179 182.245L407.932 165.842V202.424L365.619 229.121Z"/><path fill="#5885F9" d="M407.933 312.143L363.467 284.1L390.647 278.214L407.933 312.143Z"/><path fill="#733BE4" d="M363.467 284.1L384.173 265.529L390.647 278.214L363.467 284.1Z"/><path fill="#483DE2" d="M372.125 241.873L365.619 229.12L407.932 202.424V244.235L372.125 241.873Z"/><path fill="#EEBD2F" d="M379.449 97.0358L365.771 77.4363L379.449 28.6606L373.747 74.8252L379.449 97.0358Z"/><path fill="#483DE2" d="M371.18 182.245L381.207 150.733L400.086 134.647L407.933 165.841L371.18 182.245Z"/><path fill="#5F60EF" d="M376.695 250.839L372.127 241.873L407.934 244.235L376.695 250.839Z"/><path fill="#733BE4" d="M384.174 265.529L376.695 250.839L407.934 244.235L384.174 265.529Z"/><path fill="#5F60EF" d="M381.205 150.733L394.005 110.518L400.084 134.647L381.205 150.733Z"/><path fill="#5F60EF" d="M390.646 278.214L384.172 265.529L407.932 244.235V274.469L390.646 278.214Z"/><path fill="#733BE4" d="M390.679 97.2974L384.582 73.0813L407.933 66.7637L390.996 97.0357L390.679 97.2974Z"/><path fill="#5885F9" d="M384.582 73.0811L407.933 0.637093V66.7635L384.582 73.0811Z"/><path fill="#483DE2" d="M407.933 312.143L390.646 278.214L407.933 274.469V312.143Z"/><path fill="#EEBD2F" d="M394.008 110.518L390.734 97.5092L390.996 97.0354L407.933 66.7635L394.008 110.518Z"/><path fill="#DA016A" d="M400.085 134.647L394.006 110.518L407.931 66.7636V127.956L400.085 134.647Z"/><path fill="#EEBD2F" d="M407.932 165.841L400.086 134.647L407.932 127.956V165.841Z"/></svg>