<svg width="711" height="121" viewBox="0 0 711 121" fill="none" xmlns="http://www.w3.org/2000/svg">
<path d="M62.4922 22.9986H85.3934L48.2161 119.065C47.77 120.106 45.9854 120.106 45.3906 119.065L0.629147 2.62544C0.18302 1.73319 0.777857 0.840935 1.96753 0.840935H22.192C22.9355 0.840935 23.5304 1.13835 23.6791 1.73319L46.8777 66.5704L62.4922 22.9986ZM195.38 117.875C195.826 118.916 195.231 119.808 194.042 119.808H172.776C172.33 119.808 171.438 119.362 171.289 118.916L149.578 71.7752H136.789V118.47C136.789 119.065 136.045 119.808 135.153 119.808H115.672C114.928 119.808 114.185 119.065 114.185 118.47V49.915H136.789H154.188C159.095 49.915 171.735 49.3201 171.735 36.2337C171.735 23.1473 157.757 22.4038 154.188 22.4038H136.789H114.185V2.17932C114.185 1.58448 114.928 0.840935 115.672 0.840935H154.188C160.88 0.840935 194.339 1.13835 194.339 36.2337C194.339 54.3762 184.376 63.8936 172.479 68.2062C179.914 85.0103 187.945 101.368 195.38 117.875ZM272.738 99.4351C273.779 99.4351 274.374 100.03 274.374 100.773V118.47C274.374 119.065 273.779 119.808 272.738 119.808H225.894C225.002 119.808 224.259 119.065 224.259 118.47V100.773C224.259 100.03 225.002 99.4351 225.894 99.4351H238.089V57.3504V21.2141V0.840935H260.841V21.2141V57.3504V99.4351H272.738ZM322.483 0.840935C351.482 0.840935 392.079 7.53284 392.079 60.3246C392.079 111.183 352.077 119.808 322.483 119.808H303.003C302.11 119.808 301.367 119.065 301.367 118.47V71.7752H324.119V97.948C338.544 98.5428 369.178 97.0558 369.178 60.3246C369.178 32.0699 349.995 21.2141 324.119 22.5525V48.874H301.367V2.17932C301.367 1.58448 302.11 0.840935 303.003 0.840935H322.483ZM442.287 0.840935C471.285 0.840935 511.883 7.53284 511.883 60.3246C511.883 111.183 471.88 119.808 442.287 119.808H422.806C421.914 119.808 421.171 119.065 421.171 118.47V71.7752H443.923V97.948C458.348 98.5428 488.982 97.0558 488.982 60.3246C488.982 32.0699 469.798 21.2141 443.923 22.5525V48.874H421.171V2.17932C421.171 1.58448 421.914 0.840935 422.806 0.840935H442.287ZM563.727 52.443H540.974V2.17932C540.974 1.58448 541.718 0.840935 542.61 0.840935H562.091C563.132 0.840935 563.727 1.58448 563.727 2.17932V49.1714V52.443ZM629.902 0.840935C630.943 0.840935 631.538 1.58448 631.538 2.17932V118.47C631.538 119.065 630.943 119.808 629.902 119.808H610.422C609.529 119.808 608.786 119.065 608.786 118.47V97.5019H563.727V118.47C563.727 119.065 563.132 119.808 562.091 119.808H542.61C541.718 119.808 540.974 119.065 540.974 118.47V75.1955H563.727V75.3442H608.786V71.3291V49.1714V2.17932C608.786 1.58448 609.529 0.840935 610.422 0.840935H629.902ZM709.112 99.4351C710.153 99.4351 710.748 100.03 710.748 100.773V118.47C710.748 119.065 710.153 119.808 709.112 119.808H662.269C661.376 119.808 660.633 119.065 660.633 118.47V100.773C660.633 100.03 661.376 99.4351 662.269 99.4351H674.463V57.3504V21.2141V0.840935H697.215V21.2141V57.3504V99.4351H709.112Z" fill="white"/>
</svg>
