<svg xmlns="http://www.w3.org/2000/svg" width="51" height="215" fill="none" viewBox="0 0 51 215"><g id="Group"><path id="Vector" fill="#ACB3D8" d="M48.9336 105.858C48.9336 105.858 47.6049 109.215 35.087 112.781C22.5691 116.348 20.8208 108.865 20.8208 108.865L21.2404 100.333C21.2404 100.333 45.1572 97.0463 45.2971 96.8365C45.5069 96.6966 48.5839 101.452 48.9336 105.858Z"/><g id="Group_2"><path id="Vector_2" fill="#450603" d="M48.7927 141.243C48.7927 141.243 49.8417 150.894 49.5619 153.412C49.2123 155.929 35.4356 168.517 33.2677 169.566C33.2677 169.566 28.3025 164.881 28.5822 164.251C28.862 163.622 38.3028 154.111 39.212 152.782C40.1211 151.454 38.7924 143.341 38.7924 143.341L48.7927 141.243Z"/><path id="Vector_3" fill="#E6E8F4" d="M28.7207 163.692C27.392 165.58 22.217 174.321 19.3498 177.189C19.3498 177.189 20.189 181.175 22.0072 182.364C22.4268 182.643 24.245 181.315 24.5248 181.385C24.5248 181.385 26.2032 178.447 28.5109 175.44C30.3991 172.993 32.9866 170.335 33.8258 169.496C34.7349 168.657 29.2802 162.922 28.7207 163.692Z"/><g id="Group_3"><path id="Vector_4" fill="#6B78B7" d="M13.7563 179.007C13.5465 179.357 17.9522 189.077 20.26 192.015C21.2391 193.273 23.7566 195.511 23.8965 195.301C24.386 194.462 24.5958 193.273 24.5259 192.714C24.386 191.805 23.5468 186.21 23.7566 184.881C23.9664 183.553 25.2951 181.175 26.4141 180.406C26.4141 180.406 25.9945 180.336 25.2252 180.406C24.4559 180.406 22.7776 181.804 22.7076 181.525C22.5678 181.175 23.9664 179.357 24.0364 178.448C24.1063 177.539 21.0293 175.301 21.5887 174.461C21.1691 174.042 20.6796 174.601 19.1411 176.07C18.3718 176.839 14.8053 177.329 13.7563 179.007Z"/><g id="Group_4"><path id="Vector_5" fill="#070540" d="M20.2604 192.015C18.0226 189.217 13.9665 180.266 13.7567 179.077C13.4071 179.217 13.2672 179.567 13.0574 179.916C12.8476 180.266 17.2533 189.987 19.5611 192.924C20.5402 194.183 23.0577 196.42 23.1976 196.211C23.4074 195.861 23.5473 195.511 23.6172 195.162C22.9179 194.742 21.0297 193.064 20.2604 192.015Z"/></g><path id="Vector_6" fill="#6B78B7" d="M25.2251 180.476C24.4558 180.476 22.7775 181.874 22.7075 181.594C22.5677 181.245 23.9663 179.427 24.0362 178.517C24.1062 178.028 23.3369 177.259 22.6376 176.559C22.0781 180.895 18.1619 185.231 15.8542 186.63C17.1129 189.147 18.5116 191.735 19.4906 192.993C20.4697 194.252 22.9873 196.49 23.1271 196.28C23.3369 195.931 23.4768 195.581 23.5467 195.231C23.6866 195.301 23.8264 195.371 23.8264 195.301C24.316 194.462 24.5258 193.273 24.4558 192.714C24.316 191.805 23.4768 186.21 23.6866 184.881C23.8964 183.553 25.2251 181.175 26.344 180.406C26.414 180.476 25.9944 180.406 25.2251 180.476Z" opacity=".4"/></g></g><g id="Group_5"><g id="Group_6"><path id="Vector_7" fill="#691813" d="M30.1217 150.894C29.9819 151.174 30.4015 153.412 29.9819 154.81C29.6322 156.279 24.8768 170.335 24.5971 176.769L31.6603 178.307C31.6603 178.307 40.5417 158.377 40.9613 155.859C41.3809 153.412 41.3809 148.097 41.3809 148.097L30.1217 150.894Z"/><path id="Vector_8" fill="#450603" d="M41.1714 154.67C41.4512 152.013 41.4512 148.167 41.4512 148.167L30.1221 150.894C29.9823 151.174 30.3319 152.992 30.0522 154.391C33.5488 153.202 37.9545 153.132 41.1714 154.67Z"/></g><path id="Vector_9" fill="#fff" d="M23.9685 176.209C23.7587 179.077 23.1293 191.035 21.8705 195.86C21.8705 195.86 24.5279 198.937 27.1154 199.147C28.0945 199.217 29.4232 197.049 30.0526 196.909C30.0526 196.909 29.9127 192.783 30.4722 188.098C30.8918 184.252 31.9407 179.846 32.2904 178.447C32.6401 177.118 24.0384 175.09 23.9685 176.209Z"/><g id="Group_7"><path id="Vector_10" fill="#6B78B7" d="M18.4416 201.176C18.4416 201.665 21.1689 203.693 23.5466 206.001C25.1551 207.61 27.6726 210.966 32.0084 212.645C33.8267 213.344 38.2324 212.435 38.2324 212.085C38.2324 210.896 37.673 209.498 37.2534 209.008C36.554 208.169 32.0784 202.854 31.449 201.246C30.8196 199.707 31.3091 196.49 32.0084 194.952C32.0084 194.952 30.1203 194.742 29.2811 195.301C28.4419 195.861 27.323 198.099 27.1132 197.889C26.7635 197.609 27.0432 194.812 26.5537 193.763C26.0642 192.714 22.4277 192.924 22.6375 191.805C21.8682 191.525 21.6584 192.434 20.9591 194.952C20.6095 196.141 18.5115 198.728 18.4416 201.176Z"/><g id="Group_8"><path id="Vector_11" fill="#070540" d="M32.0779 212.645C27.7421 211.036 25.2246 207.61 23.6161 206.001C21.4482 203.903 19.0006 202.015 18.581 201.316C18.4411 201.735 18.3712 202.574 18.4411 202.994C18.5111 203.484 21.5182 205.721 23.9658 208.099C25.5742 209.708 28.0918 213.064 32.4276 214.743C34.2458 215.442 38.5117 214.533 38.5117 214.183C38.5117 213.624 38.5117 212.575 38.3719 212.085C38.3019 212.435 33.8263 213.344 32.0779 212.645Z"/></g></g></g><g id="Group_9"><path id="Vector_12" fill="#691813" d="M20.8898 108.865C20.8898 108.865 21.1695 112.151 20.8898 113.27C20.8898 113.27 40.1911 116.068 41.3101 107.256C41.4499 106.417 41.6597 100.682 41.9395 100.613C41.9395 100.613 21.6591 104.459 20.8898 108.865Z"/><path id="Vector_13" fill="#450603" d="M41.38 106.207C41.5199 104.249 41.7297 100.753 41.9395 100.683C41.9395 100.683 21.6591 104.529 20.8898 108.935C20.8898 108.935 20.8898 109.284 20.9597 109.704C26.7641 105.648 41.38 106.207 41.38 106.207Z"/><g id="Group_10"><path id="Vector_14" fill="#6B78B7" d="M41.3802 106.277C41.3802 110.333 46.8349 124.04 50.9609 142.432C50.2616 145.02 43.7579 145.16 43.7579 145.16C43.7579 145.16 44.0376 147.817 44.1076 149.146C42.7089 152.363 31.0302 153.342 29.2819 151.733C28.4427 149.006 26.1349 138.236 25.2957 135.369C24.5265 132.502 20.6103 127.537 19.7711 122.921C18.9319 118.305 19.7012 112.571 20.9599 111.522C21.3795 114.04 41.0305 111.732 41.3802 106.277Z"/><path id="Vector_15" fill="#6B78B7" d="M42.4297 111.522C41.8003 109.145 41.3807 107.326 41.3807 106.277C41.031 111.732 21.38 114.04 21.0304 111.522C19.8415 112.501 19.0723 117.536 19.6317 122.012C22.0094 118.096 33.2685 112.152 42.4297 111.522Z" opacity=".3"/><path id="Vector_16" fill="#6B78B7" d="M50.1914 143.481C46.7647 144.67 41.0303 127.047 41.5897 130.054C42.4988 134.81 43.7576 145.09 43.7576 145.09C43.7576 145.09 48.3032 145.02 50.1914 143.481Z" opacity=".3"/></g></g><g id="Group_11"><path id="Vector_17" fill="#450603" d="M19.9821 23.687C22.9192 23.4772 19.3527 14.6657 19.1429 12.8475C19.073 12.0083 21.1709 12.5678 22.4297 13.407C23.6885 14.2461 23.7584 16.7637 23.7584 16.7637L24.7375 24.4563C24.8074 24.5262 20.2618 24.4563 19.9821 23.687Z"/></g><g id="Group_12" opacity=".5"><path id="Vector_18" fill="#450603" d="M19.9821 23.687C22.9192 23.4772 19.3527 14.6657 19.1429 12.8475C19.073 12.0083 21.1709 12.5678 22.4297 13.407C23.6885 14.2461 23.7584 16.7637 23.7584 16.7637L24.7375 24.4563C24.8074 24.5262 20.2618 24.4563 19.9821 23.687Z"/></g><g id="Group_13"><path id="Vector_19" fill="#F07D18" d="M9.83693 23.5147C4.40383 21.3941 1.71845 15.2707 3.83897 9.83763C5.95949 4.40452 12.0829 1.71914 17.516 3.83966C22.9491 5.96018 25.6345 12.0836 23.514 17.5167C21.3935 22.9498 15.27 25.6352 9.83693 23.5147Z"/><g id="Group_14"><path id="Vector_20" fill="#070540" d="M18.791 8.09253C18.3015 7.32328 17.742 6.69388 17.1126 6.06449C17.8819 5.71483 18.6511 5.36516 19.4204 4.8057C19.0707 4.5959 18.791 4.38612 18.4413 4.24625C17.742 4.66585 16.9728 5.01551 16.2734 5.29524C15.644 4.80571 15.0146 4.38611 14.3852 4.03645C13.7559 3.68679 13.0565 3.40706 12.3572 3.19727C12.2873 3.19727 12.2873 3.19727 12.2173 3.19727C11.4481 3.33713 10.6788 3.47699 9.97951 3.75672C11.3782 3.82665 12.7069 4.17631 13.9657 4.87564C14.3853 5.08544 14.8748 5.36516 15.2244 5.71483C13.6859 6.20435 12.2173 6.55401 10.8187 6.76381C8.37107 7.25334 6.13323 7.67294 4.17512 9.14152C3.89539 9.77091 3.61566 10.4702 3.4758 11.2395C5.50384 8.79186 8.0214 8.30233 10.9586 7.74287C12.567 7.46314 14.3153 7.11347 16.0636 6.41415C16.693 6.97361 17.2525 7.603 17.742 8.37226C13.0565 9.9807 7.74167 13.1976 4.17512 18.2327C4.31499 18.5824 4.52479 18.8621 4.73458 19.2118C8.30114 14.0368 13.6859 10.75 18.3714 9.21145C19.1407 10.4702 19.77 12.0087 20.2596 13.6871C18.6511 14.4564 17.4623 15.925 16.1336 17.3935C14.4552 19.3516 12.567 21.5895 9.35011 23.2679C9.76971 23.4777 10.1194 23.6175 10.539 23.7574C13.5461 22.0091 15.3643 19.9111 16.9028 18.0929C18.1616 16.6243 19.2106 15.3655 20.4694 14.6662C20.9589 16.6243 21.1687 18.7922 21.1687 21.1C21.5184 20.7503 21.868 20.4006 22.1477 19.981C22.0778 17.953 21.7981 15.9949 21.3785 14.2466C22.1477 13.9668 23.1268 13.8969 24.1758 14.0368C24.1758 13.6871 24.1758 13.4074 24.1758 13.0577C22.9869 12.9179 22.0079 13.0577 21.0988 13.3375C20.6092 11.729 20.0498 10.2604 19.2805 9.00165C20.5393 8.65198 21.6582 8.44219 22.7072 8.37226C22.4974 8.09253 22.2876 7.74287 22.0778 7.46314C21.0988 7.53307 19.9798 7.74287 18.791 8.09253Z"/></g></g><g id="Group_15"><path id="Vector_21" fill="#450603" d="M26.4144 55.5764C26.4144 55.5764 28.1627 52.3595 28.7221 51.2406C29.2816 50.0517 21.7988 28.6524 21.2394 27.7433C19.7708 25.5054 15.7846 25.0858 15.6448 23.9669C15.5748 23.3375 15.9944 23.1277 16.7637 22.9879C18.0225 22.848 19.2813 23.2676 20.0505 23.4774C20.8198 23.6173 22.7779 23.897 23.2674 23.4075C24.1066 22.6382 23.9667 19.2814 23.8968 18.3723C23.8269 17.4632 23.687 15.9247 24.1066 15.645C24.5262 15.3652 25.2255 15.8548 25.5053 17.8828C25.785 19.9108 25.785 26.0649 26.2046 27.1838C26.6242 28.3027 31.8691 38.3031 32.9181 40.2612C33.9671 42.2193 36.3448 48.3733 36.6245 49.4922C36.9042 50.5412 31.3796 61.5206 30.6802 62.7794C29.8411 64.178 25.8549 56.8351 26.4144 55.5764Z"/><path id="Vector_22" fill="#450603" d="M27.6031 53.3386C26.9737 54.4575 26.4142 55.5765 26.4142 55.5765C25.9247 56.7653 29.8409 64.1082 30.6102 62.8494C30.8899 62.29 32.0787 60.0521 33.2676 57.5346C31.0297 56.6954 29.0017 55.2967 27.6031 53.3386Z" opacity=".3"/><path id="Vector_23" fill="#FFB718" d="M19.1414 63.4089C19.3512 63.339 24.8758 57.8843 26.4843 54.8772C26.4843 54.8772 30.1907 57.4647 31.3096 61.311C32.3586 65.1573 21.5191 71.1015 19.0015 71.3812C16.5539 71.661 15.7147 64.8076 19.1414 63.4089Z"/></g><g id="Group_16"><path id="Vector_24" fill="#330300" d="M7.81262 66.2759C7.81262 66.2759 6.97343 64.8073 4.03627 63.5486C1.79844 62.5695 0.12005 61.031 0.749442 57.8141C1.44877 54.5273 4.80553 52.5692 6.13425 52.2895C7.46296 52.0797 8.44201 53.3384 8.44201 53.3384C8.44201 53.3384 12.0785 64.0381 7.81262 66.2759Z"/><path id="Vector_25" fill="#450603" d="M16.9031 59.7022C17.1129 60.6113 15.2946 62.0799 15.2247 62.3596C15.1548 62.6393 16.2038 65.2968 16.2038 65.2968C16.2038 65.2968 9.14058 68.9333 8.86085 69.1431C8.86085 69.1431 8.3014 67.4647 7.81187 66.2758C7.81187 66.2758 8.5112 63.9681 6.1335 62.2198C4.87471 61.3106 6.20342 60.961 6.20342 60.961C6.20342 60.961 15.6443 57.8839 16.9031 59.7022Z"/><path id="Vector_26" fill="#691813" d="M9.00156 61.5908C8.51203 62.2202 6.62385 63.1293 5.6448 61.8006C4.66575 60.4019 6.13434 59.7725 7.88265 60.0522C8.16238 60.1222 6.20427 57.9543 6.13434 57.7445C6.13434 57.6046 6.13433 56.7654 5.8546 56.4857C5.29514 55.9262 4.66575 55.6465 4.80561 55.087C5.22521 53.8283 6.62385 53.2688 7.39311 53.2688C8.16237 53.1989 10.4701 53.9681 12.2185 55.2269C12.9178 55.7164 16.4843 59.0033 16.834 59.7725C15.9249 59.0033 13.9668 61.2411 11.659 62.0803C10.61 62.4299 9.42115 62.0104 9.00156 61.5908Z"/></g><g id="Group_17"><path id="Vector_27" fill="#E6E8F4" d="M6.27593 72.9894C6.27593 72.9894 7.11512 77.0455 13.1293 88.7942C16.9756 96.3469 20.7519 103.48 20.8918 108.935C20.682 107.886 48.0256 100.333 48.9347 105.928C48.9347 105.928 49.9137 99.9134 45.3681 93.3398C40.8225 86.7661 28.4445 68.4438 22.9198 66.1361C17.4651 63.7584 6.27593 72.9894 6.27593 72.9894Z"/><g id="Group_18"><path id="Vector_28" fill="#ACB3D8" d="M12.1501 78.0243C22.9896 76.6956 30.6122 83.6189 37.6055 82.1503C32.4305 75.0172 26.3463 67.4645 22.9896 66.0658C18.6538 64.2476 10.7514 69.6324 7.6744 71.9402C7.74433 71.9402 9.91223 78.304 12.1501 78.0243Z"/></g></g><g id="Group_19"><path id="Vector_29" fill="#FFB718" d="M27.2538 73.5489C27.2538 73.5489 28.6524 73.4789 28.9321 68.0941C29.1419 62.7094 19.6311 70.4719 19.6311 70.4719C19.6311 70.4719 24.1767 74.6678 27.2538 73.5489Z"/><path id="Vector_30" fill="#691813" d="M25.7158 62.0101C25.7158 62.0101 29.2124 61.2409 30.3314 60.2618C31.4503 59.2828 38.5135 43.8976 38.9331 42.7088C39.3526 41.5899 37.6043 40.1213 37.1148 39.2821C36.6253 38.373 34.6672 37.0442 34.1077 36.6247C33.5483 36.2051 34.5972 35.5057 35.2266 35.6456C35.856 35.7855 37.8841 37.0442 38.4435 36.9743C39.003 36.9743 39.2128 34.5966 39.2827 33.6176C39.3526 32.6385 38.8631 27.3936 38.7932 26.7642C38.7932 26.2047 39.7023 25.8551 39.982 26.6243C40.1918 27.3237 41.031 32.2189 41.2408 32.5686C41.4506 32.8483 41.7303 32.7784 41.7303 32.5686C41.7303 32.3588 41.5905 26.2747 41.5205 25.7851C41.5205 25.2956 42.4297 24.876 42.6395 25.6453C42.8493 26.4145 43.4787 32.0791 43.6185 32.2888C43.7584 32.4986 45.4368 26.7642 45.6466 26.3446C45.8564 25.925 46.7655 26.0649 46.7655 26.7642C46.6955 27.5334 45.0871 32.8483 45.227 33.198C45.3668 33.5476 47.9543 30.4007 48.304 30.1209C48.6536 29.8412 49.5628 30.1209 49.0732 30.9601C48.5837 31.7993 46.8354 34.247 46.4858 34.8763C46.1361 35.5057 45.9263 39.2122 45.5067 40.401C45.227 41.3101 44.108 42.4291 43.7584 42.8486C43.4787 43.2682 38.7932 62.15 37.8841 64.178C36.9749 66.1361 23.9675 72.5699 22.9185 73.3392C21.8696 73.9686 20.401 63.7584 25.7158 62.0101Z"/><path id="Vector_31" fill="#450603" d="M26.485 61.8003C25.9955 61.9402 25.6458 62.0101 25.6458 62.0101C20.4009 63.8283 21.8694 73.9685 22.8485 73.1993C23.1982 72.9195 25.2262 71.8706 27.6738 70.5418C25.3661 69.2131 26.485 61.9402 26.485 61.8003Z" opacity=".5"/><path id="Vector_32" fill="#FEDA00" d="M6.20425 70.402C6.83364 67.6047 9.42114 65.0871 14.8059 64.178C20.1907 63.3388 25.7154 61.9402 25.7154 61.9402C22.988 64.178 23.4076 74.8777 27.2539 73.549C27.2539 73.549 16.6242 77.7449 12.2184 78.0246C7.8127 78.3044 5.64479 72.7797 6.20425 70.402Z"/></g></g></svg>