<svg xmlns="http://www.w3.org/2000/svg" width="106" height="181" fill="none" viewBox="0 0 106 181"><g id="Group"><g id="Group_2"><path id="Vector" fill="#F07D18" d="M101.059 67.5623C101.059 67.5623 87.5917 33.704 84.3961 25.7911C80.5157 15.8999 72.4506 3.26966 77.3962 0.454475C83.0265 -2.74114 84.9287 11.4869 88.809 25.4868C90.4069 31.3454 102.809 66.3449 102.961 66.6493C103.265 67.4101 101.439 68.5514 101.059 67.5623Z"/><g id="Group_3"><path id="Vector_2" fill="#FFB9A0" d="M97.5593 62.4645C97.4832 62.6166 90.1028 67.1818 88.505 66.8775C86.9833 66.5731 89.5702 61.2471 89.7224 61.171C89.8746 61.0949 93.0702 58.8884 93.0702 58.8884C93.0702 58.8884 98.5484 60.4102 97.5593 62.4645Z"/><g id="Group_4"><path id="Vector_3" fill="#FFE5CF" d="M95.2004 62.3884C95.0482 62.3123 92.3852 59.1928 92.7657 55.9972C93.1461 52.8016 94.2113 51.2038 94.5917 49.7581C94.7439 49.0733 95.9613 49.0734 96.0374 49.6821C96.1135 50.1386 96.1134 52.4211 96.1134 52.4211L98.9286 51.5081L100.603 60.1058C100.679 60.1058 97.0265 63.9862 95.2004 62.3884Z"/><path id="Vector_4" fill="#FFB9A0" d="M95.2004 62.3884C95.0482 62.3123 92.3852 59.1928 92.7657 55.9972C93.1461 52.8016 94.2113 51.2038 94.5917 49.7581C94.7439 49.0733 95.9613 49.0734 96.0374 49.6821C96.1135 50.1386 96.1134 52.4211 96.1134 52.4211L98.9286 51.5081L100.603 60.1058C100.679 60.1058 97.0265 63.9862 95.2004 62.3884Z" opacity=".5"/></g><g id="Group_5"><path id="Vector_5" fill="#FFE5CF" d="M98.3213 56.91C98.3213 56.91 97.18 57.4426 96.9518 57.9752C96.7235 58.5078 97.2561 59.0404 98.017 58.9643C98.7778 58.8882 100.604 58.4317 101.365 58.2035C102.126 57.9752 101.745 56.6057 101.06 56.5296C100.3 56.4535 98.7778 56.7578 98.3213 56.91Z"/><path id="Vector_6" fill="#FFE5CF" d="M96.6476 55.9968C96.6476 55.9968 95.5064 56.6816 95.4303 57.2903C95.3542 57.8229 95.9629 58.2033 96.6476 57.9751C97.3324 57.7468 100.148 56.9099 100.756 56.4534C101.365 55.9968 100.756 54.7034 100.072 54.7034C99.0063 54.7034 97.3324 55.6164 96.6476 55.9968Z"/><path id="Vector_7" fill="#FFE5CF" d="M96.2648 54.0949C96.2648 54.0949 95.1236 54.7797 95.0475 55.3884C94.9714 55.921 95.5801 56.3775 96.2648 56.1492C97.0257 55.921 99.8409 55.0079 100.45 54.6275C101.134 54.2471 100.526 52.7253 99.7648 52.7253C98.6996 52.7253 96.9496 53.7145 96.2648 54.0949Z"/><path id="Vector_8" fill="#FFE5CF" d="M95.8856 52.3449C95.8856 52.3449 94.9726 53.0297 94.9726 53.5623C94.8965 54.0949 95.5813 54.4753 96.2661 54.171C96.9508 53.8666 99.1573 53.1058 99.766 52.6493C100.375 52.1927 99.6899 50.7471 98.9291 50.8232C97.7878 50.8993 96.4943 51.8884 95.8856 52.3449Z"/></g></g></g><g id="Group_6"><g id="Group_7"><path id="Vector_9" fill="#070540" d="M3.66857 164.115C3.66857 164.115 2.07077 165.56 1.00557 167.082C0.0164484 168.604 1.08165 172.028 1.99468 173.854C2.90771 175.68 7.92939 179.256 9.60328 179.256C11.2772 179.256 10.5924 173.854 11.125 171.875C11.6576 169.821 12.2663 168.223 12.2663 168.223C12.2663 168.223 9.52719 163.658 3.66857 164.115Z"/><path id="Vector_10" fill="#E6E8F4" d="M9.60259 179.18C7.9287 179.18 2.90703 175.604 1.994 173.778C1.15705 172.104 0.244019 169.212 0.776621 167.539C0.624449 167.691 0.472277 167.919 0.396191 168.071C-0.592927 169.593 0.472278 173.017 1.38531 174.843C2.29834 176.669 7.32002 180.245 8.99391 180.245C9.45042 180.245 9.75477 179.788 9.90694 179.104C9.83085 179.18 9.75477 179.18 9.60259 179.18Z"/></g><g id="Group_8"><path id="Vector_11" fill="#070540" d="M80.8984 171.799C80.8984 171.799 80.9745 173.017 81.2789 173.549C81.5832 174.082 87.7462 175.68 90.0288 175.908C92.9961 176.212 97.4091 175.603 97.6373 174.919C97.8656 174.234 96.8765 172.18 95.8874 171.267C94.8983 170.277 90.7896 167.843 89.344 167.082C87.9744 166.397 81.1267 169.593 80.8984 171.799Z"/><path id="Vector_12" fill="#E6E8F4" d="M90.0279 175.908C87.7453 175.679 81.5823 174.006 81.278 173.549C81.278 173.549 81.2019 173.853 81.5062 174.386C81.8106 174.919 87.7453 176.593 90.0279 176.821C92.9952 177.125 97.4082 176.516 97.6365 175.832C97.7126 175.679 97.7126 175.375 97.5604 174.995C97.1039 175.603 92.8431 176.136 90.0279 175.908Z"/></g><g id="Group_9"><path id="Vector_13" fill="#6B78B7" d="M38.2109 86.2029C38.2109 86.2029 32.5045 94.3441 31.3632 99.7462C30.2219 105.072 27.9393 126.452 27.635 128.431C27.5589 128.887 22.5372 131.854 20.2546 135.126C13.4069 145.169 3.43964 163.43 3.36356 164.039C3.21139 164.876 10.8961 166.321 12.0374 168.908C13.9395 167.311 35.624 137.865 38.2109 134.974C40.95 131.854 50.6129 117.931 50.6129 117.931C50.6129 117.931 69.6344 136.496 70.5475 137.865C70.8518 138.322 70.7757 142.659 71.9931 147.3C74.5039 156.963 80.4387 171.039 80.8952 171.647C80.8952 171.647 86.2973 167.006 89.3407 166.93C89.3407 166.93 82.1886 139.843 80.2865 132.007C78.4604 124.17 63.5476 97.3114 61.9498 95.2571C60.428 93.2028 39.7327 86.279 38.2109 86.2029Z"/><g id="Group_10" opacity=".33"><path id="Vector_14" fill="#6B78B7" d="M62.0251 95.257C60.4273 93.2027 39.808 86.2789 38.2102 86.1267C38.2102 86.1267 32.5037 94.2679 31.3624 99.67C31.1342 100.659 30.9059 102.181 30.6016 104.083C30.6016 104.083 36.1558 94.9527 64.3076 99.1374C63.1664 97.0831 62.3294 95.7135 62.0251 95.257Z"/><path id="Vector_15" fill="#6B78B7" d="M56.7762 109.257C54.798 111.768 50.6133 117.931 50.6133 117.931C50.6133 117.931 55.4828 122.648 60.3523 127.518C55.1784 120.898 58.7545 106.746 56.7762 109.257Z"/></g></g></g><path id="Vector_16" fill="#ACB3D8" d="M89.9497 73.1924C89.9497 73.1924 91.6997 73.8772 93.2214 71.2903C94.7431 68.7034 95.8083 63.3013 95.8083 63.3013L88.7323 65.2795C88.7323 65.2034 86.7541 70.8338 89.9497 73.1924Z"/><g id="Group_11"><g id="Group_12"><path id="Vector_17" fill="#E6E8F4" d="M62.9425 46.8668C59.6708 46.8668 51.2252 49.0733 48.334 53.258C44.1492 59.421 45.747 69.4644 42.7036 74.0295C39.6602 78.5947 36.1602 82.1707 36.6928 86.0511C37.2254 89.9315 57.9969 97.0075 64.8446 95.1053C70.475 93.5075 75.8771 74.41 78.0836 69.0839C78.0836 69.0839 86.2248 72.8882 89.953 73.1926C89.953 73.1926 87.6704 69.5404 89.953 64.2905C92.2356 59.1167 93.0725 58.8884 93.0725 58.8884C93.0725 58.8884 90.1812 59.0406 83.7139 54.8559C77.3988 50.6711 71.4641 46.7907 62.9425 46.8668Z"/></g><g id="Group_13"><path id="Vector_18" fill="#E6E8F4" d="M83.7892 54.8558C77.3219 50.6711 71.4633 46.7907 62.8655 46.8668C61.3438 46.8668 57.5395 46.6385 60.9634 51.0515C66.2133 57.747 80.5175 60.1057 78.0827 69.0839C78.0827 69.0839 86.2239 72.8882 89.9522 73.1925C89.9522 73.1925 87.6696 69.5404 89.9522 64.2904C92.2347 59.1166 93.0717 58.8883 93.0717 58.8883C93.0717 58.8883 90.2565 58.9644 83.7892 54.8558Z"/></g></g><g id="Group_14"><path id="Vector_19" fill="#ACB3D8" d="M59.9705 77.9099C59.9705 77.9099 60.9596 78.6708 68.1117 71.6709C75.2638 64.671 64.4596 65.9645 61.6444 68.171C58.9053 70.3014 56.3944 74.9426 59.9705 77.9099Z"/><g id="Group_15"><path id="Vector_20" fill="#FFE5CF" d="M71.8389 65.1277C71.8389 65.1277 91.393 64.519 92.7625 64.3668C94.1321 64.1386 97.0234 59.1169 97.7081 58.4321C98.3929 57.7474 102.425 58.28 102.882 58.4321C103.415 58.5843 103.11 59.8017 103.034 60.0299C103.034 60.0299 104.175 60.4104 104.404 60.943C104.556 61.2473 104.252 62.3886 104.252 62.3886C104.252 62.3886 105.012 62.6929 105.165 63.0734C105.241 63.3016 104.936 64.0625 104.936 64.0625C104.936 64.0625 105.849 64.4429 105.697 65.2038C105.621 65.6603 104.48 66.9538 103.947 66.8016C103.415 66.6494 101.969 66.4972 101.36 66.9537C100.752 67.4103 100.599 67.9429 100.752 68.3994C100.828 68.7798 99.382 70.3776 97.4799 70.3015C95.6538 70.2254 93.2951 69.3885 89.0343 71.2907C84.7735 73.1928 75.6432 74.7906 72.0672 74.7906C68.4911 74.7906 63.3934 71.2907 63.3173 71.2907C63.2412 71.2146 68.1868 65.2038 71.8389 65.1277Z"/><path id="Vector_21" fill="#FFB9A0" d="M104.861 63.9864C104.861 63.9864 105.165 63.1494 105.089 62.9972C104.937 62.6168 104.176 62.3125 104.176 62.3125C104.176 62.3125 104.556 61.1712 104.328 60.8668C104.1 60.4103 102.959 59.9538 102.959 59.9538C103.111 59.7256 103.339 58.4321 102.807 58.356C102.502 58.2799 100.6 57.9756 99.2305 58.0517C99.5348 58.0517 100.904 58.2799 101.209 58.5842C101.513 58.9647 101.133 59.9538 101.513 60.4864C101.817 61.019 103.187 63.3016 103.415 63.9864C103.643 64.6711 103.567 66.5733 102.578 66.6494C103.111 66.6494 103.567 66.7255 103.872 66.8015C104.404 66.9537 105.546 65.6603 105.622 65.2037C105.774 64.3668 104.861 63.9864 104.861 63.9864Z" opacity=".5"/></g><path id="Vector_22" fill="#F3F4FA" d="M71.8404 65.1272C71.8404 65.1272 68.3405 64.062 63.7753 59.649C59.2101 55.236 52.7428 53.2578 49.7755 55.236C46.8081 57.2903 44.6016 63.6055 49.6233 68.0185C56.5471 74.1814 58.1449 77.9096 59.971 77.9096C59.971 77.9096 58.3732 77.5292 63.1666 73.1923C67.8839 68.7032 70.1665 67.638 71.8404 65.1272Z"/></g><g id="Group_16"><path id="Vector_23" fill="#ACB3D8" d="M65.3719 53.4862C65.3719 53.4862 66.6654 54.0949 67.2741 53.7144C67.8827 53.334 66.8175 49.5297 65.8284 48.7688C64.8393 48.008 64.9915 52.8014 65.3719 53.4862Z"/><g id="Group_17"><path id="Vector_24" fill="#070540" d="M69.4789 43.8992C69.4789 43.8992 68.7181 45.8013 66.5877 45.9535C64.4573 46.1057 66.6638 40.4753 66.6638 40.4753H69.9355C70.0115 40.4753 69.7833 42.9101 69.4789 43.8992Z"/><path id="Vector_25" fill="#070540" d="M69.4789 43.8992C69.4789 43.8992 68.7181 45.8013 66.5877 45.9535C64.4573 46.1057 66.6638 40.4753 66.6638 40.4753H69.9355C70.0115 40.4753 69.7833 42.9101 69.4789 43.8992Z"/><path id="Vector_26" fill="#D14122" d="M57.6125 40.3235C57.6125 40.3235 57.3082 36.8236 58.2973 35.3779C59.2103 34.0084 66.7428 33.3997 68.1124 35.6823C69.8624 38.6496 67.9602 44.28 67.9602 44.28C67.9602 44.28 58.6016 49.606 57.6125 40.3235Z"/><path id="Vector_27" fill="#FFB9A0" d="M60.3493 48.9974C60.3493 48.9974 60.1972 50.2908 60.2733 50.5191C60.2733 50.7473 64.3819 53.106 65.371 53.4865C65.371 53.4865 68.034 44.5083 67.9579 44.5083C67.8819 44.5083 60.3493 48.9974 60.3493 48.9974Z"/><path id="Vector_28" fill="#FFE5CF" d="M57.6113 40.3234C57.6113 40.4755 57.9918 48.6167 58.1439 49.5298C58.2961 50.4428 60.7309 50.7472 61.7961 50.2906C62.9373 49.758 65.6004 47.8559 65.9047 47.3994C66.209 46.9429 66.4373 45.7255 66.4373 45.7255C66.4373 45.7255 66.3612 46.3342 67.2742 46.182C68.1112 46.0298 69.0242 44.8124 69.0242 44.1277C69.1003 42.1494 67.046 41.8451 66.4373 44.5081C66.3612 44.8124 65.6004 44.9646 65.6764 44.7364C65.6764 44.5081 65.9047 42.3016 65.9047 41.9212C65.9047 41.5408 65.0678 41.0842 65.0678 40.7038C65.0678 40.3234 65.6764 37.8125 65.5243 37.356C65.3721 36.9756 62.633 38.193 60.2743 37.6604C57.9157 37.2038 57.6113 38.193 57.6113 40.3234Z"/><path id="Vector_29" fill="#FFB9A0" d="M57.8389 43.7472C60.0454 43.2146 62.2519 45.8776 65.828 44.1277C65.904 43.3668 65.9801 42.2255 65.9801 41.9212C65.9801 41.5408 65.1432 41.0842 65.1432 40.7038C65.1432 40.3234 65.7519 37.8125 65.5997 37.356C65.4475 36.9756 62.7084 38.193 60.3498 37.6604C57.9911 37.1278 57.6107 38.1169 57.6868 40.2473C57.6107 40.3995 57.7628 41.9212 57.8389 43.7472Z"/><path id="Vector_30" fill="#070540" d="M69.4814 43.8995C69.4814 43.8995 69.8618 41.5408 68.3401 41.7691C64.9162 42.2256 60.0467 39.1061 57.2315 39.6387C57.2315 39.6387 56.6989 35.7583 59.5141 34.0083C62.5576 32.1062 68.7205 33.2475 70.014 37.0518C71.3074 40.7039 69.4814 43.8995 69.4814 43.8995Z"/><g id="Group_18"><path id="Vector_31" fill="#070540" d="M66.7405 42.3776C66.7405 42.3776 64.9905 43.2906 63.0884 43.0624C61.1862 42.8341 59.0558 40.8559 55.0233 41.008L54.8711 40.6276C54.8711 40.6276 56.8493 40.3994 57.3058 40.3233C57.9906 40.095 59.5884 40.0189 61.2623 40.5515C62.8601 41.0081 66.8166 41.845 66.8166 41.845V42.3776H66.7405Z"/><path id="Vector_32" fill="#6B78B7" d="M66.7404 41.6929C66.7404 41.6929 64.9904 42.7581 63.0883 42.4537C61.1861 42.2255 58.9036 40.3994 54.7949 40.4755C54.7949 40.4755 56.5449 39.7146 57.2297 39.4864C57.9144 39.2581 59.5123 39.182 61.1861 39.7146C62.9361 40.3994 65.8274 41.5407 66.7404 41.6929Z"/></g></g></g></g></svg>