<svg width="549" height="58" viewBox="0 0 549 58" fill="none" xmlns="http://www.w3.org/2000/svg">
<path d="M30.5047 10.9387H41.4009L23.7123 56.6462C23.5 57.1415 22.6509 57.1415 22.3679 56.6462L1.07075 1.24528C0.858491 0.820754 1.14151 0.396227 1.70755 0.396227H11.3302C11.684 0.396227 11.967 0.537735 12.0377 0.820754L23.0755 31.6698L30.5047 10.9387ZM93.378 56.0802C93.5903 56.5755 93.3073 57 92.7412 57H82.6233C82.411 57 81.9865 56.7877 81.9158 56.5755L71.5856 34.1462H65.5007V56.3632C65.5007 56.6462 65.1469 57 64.7224 57H55.4535C55.0997 57 54.7459 56.6462 54.7459 56.3632V23.7453H65.5007H73.779C76.1139 23.7453 82.128 23.4623 82.128 17.2358C82.128 11.0094 75.4771 10.6557 73.779 10.6557H65.5007H54.7459V1.03302C54.7459 0.75 55.0997 0.396227 55.4535 0.396227H73.779C76.9629 0.396227 92.8827 0.537735 92.8827 17.2358C92.8827 25.8679 88.1422 30.3962 82.4818 32.4481C86.0195 40.4434 89.8403 48.2264 93.378 56.0802ZM129.831 47.3066C130.326 47.3066 130.609 47.5896 130.609 47.9434V56.3632C130.609 56.6462 130.326 57 129.831 57H107.543C107.118 57 106.764 56.6462 106.764 56.3632V47.9434C106.764 47.5896 107.118 47.3066 107.543 47.3066H113.345V27.283V10.0896V0.396227H124.17V10.0896V27.283V47.3066H129.831ZM153.145 0.396227C166.942 0.396227 186.259 3.58019 186.259 28.6981C186.259 52.8962 167.225 57 153.145 57H143.876C143.452 57 143.098 56.6462 143.098 56.3632V34.1462H153.924V46.5991C160.787 46.8821 175.362 46.1745 175.362 28.6981C175.362 15.2547 166.235 10.0896 153.924 10.7264V23.25H143.098V1.03302C143.098 0.75 143.452 0.396227 143.876 0.396227H153.145ZM209.793 0.396227C223.59 0.396227 242.907 3.58019 242.907 28.6981C242.907 52.8962 223.873 57 209.793 57H200.524C200.1 57 199.746 56.6462 199.746 56.3632V34.1462H210.572V46.5991C217.435 46.8821 232.01 46.1745 232.01 28.6981C232.01 15.2547 222.883 10.0896 210.572 10.7264V23.25H199.746V1.03302C199.746 0.75 200.1 0.396227 200.524 0.396227H209.793ZM267.22 24.9481H256.394V1.03302C256.394 0.75 256.748 0.396227 257.172 0.396227H266.441C266.937 0.396227 267.22 0.75 267.22 1.03302V23.3915V24.9481ZM298.705 0.396227C299.201 0.396227 299.484 0.75 299.484 1.03302V56.3632C299.484 56.6462 299.201 57 298.705 57H289.437C289.012 57 288.658 56.6462 288.658 56.3632V46.3868H267.22V56.3632C267.22 56.6462 266.937 57 266.441 57H257.172C256.748 57 256.394 56.6462 256.394 56.3632V35.7736H267.22V35.8443H288.658V33.934V23.3915V1.03302C288.658 0.75 289.012 0.396227 289.437 0.396227H298.705ZM336.039 47.3066C336.534 47.3066 336.817 47.5896 336.817 47.9434V56.3632C336.817 56.6462 336.534 57 336.039 57H313.751C313.327 57 312.973 56.6462 312.973 56.3632V47.9434C312.973 47.5896 313.327 47.3066 313.751 47.3066H319.553V27.283V10.0896V0.396227H330.379V10.0896V27.283V47.3066H336.039ZM360.627 6.48113L359.212 24.7358H355.321L353.906 6.48113H360.627ZM409.987 47.2358V56.3632C409.987 56.6462 409.633 57 409.138 57H377.298C376.873 57 376.52 56.6462 376.52 56.3632V47.9434L396.26 20.7736C397.604 18.934 398.171 17.2358 398.171 15.75C398.171 12.8491 395.977 10.7972 393.218 10.7972C390.317 10.7972 387.204 12.566 387.204 16.7406C387.204 17.0236 386.921 17.3066 386.425 17.3066H377.864C377.369 17.3066 377.086 17.0236 377.086 16.7406C377.086 7.68396 382.109 0.396227 393.218 0.396227C401.496 0.396227 409.279 6.55188 409.279 15.184C409.279 18.5094 408.076 22.3302 405.246 26.0094L389.68 46.5991H409.138C409.633 46.5991 409.987 46.9528 409.987 47.2358ZM439.356 57C431.149 57 422.941 51.6226 422.941 41.1509V16.2453C422.941 5.84434 431.149 0.396227 439.356 0.396227C447.564 0.396227 455.772 5.84434 455.772 16.2453V41.1509C455.772 51.6226 447.564 57 439.356 57ZM439.356 9.66509C436.385 9.66509 433.484 11.6462 433.484 15.6792V41.5047C433.484 45.5377 436.455 47.5896 439.356 47.5896C442.328 47.5896 445.3 45.5377 445.3 41.5047V15.6792C445.3 11.6462 442.257 9.66509 439.356 9.66509ZM502.277 47.2358V56.3632C502.277 56.6462 501.923 57 501.428 57H469.589C469.164 57 468.81 56.6462 468.81 56.3632V47.9434L488.551 20.7736C489.895 18.934 490.461 17.2358 490.461 15.75C490.461 12.8491 488.268 10.7972 485.508 10.7972C482.607 10.7972 479.494 12.566 479.494 16.7406C479.494 17.0236 479.211 17.3066 478.716 17.3066H470.155C469.659 17.3066 469.376 17.0236 469.376 16.7406C469.376 7.68396 474.4 0.396227 485.508 0.396227C493.787 0.396227 501.57 6.55188 501.57 15.184C501.57 18.5094 500.367 22.3302 497.537 26.0094L481.971 46.5991H501.428C501.923 46.5991 502.277 46.9528 502.277 47.2358ZM548.699 47.2358V56.3632C548.699 56.6462 548.345 57 547.85 57H516.01C515.586 57 515.232 56.6462 515.232 56.3632V47.9434L534.973 20.7736C536.317 18.934 536.883 17.2358 536.883 15.75C536.883 12.8491 534.69 10.7972 531.93 10.7972C529.029 10.7972 525.916 12.566 525.916 16.7406C525.916 17.0236 525.633 17.3066 525.138 17.3066H516.576C516.081 17.3066 515.798 17.0236 515.798 16.7406C515.798 7.68396 520.822 0.396227 531.93 0.396227C540.208 0.396227 547.991 6.55188 547.991 15.184C547.991 18.5094 546.789 22.3302 543.958 26.0094L528.392 46.5991H547.85C548.345 46.5991 548.699 46.9528 548.699 47.2358Z" fill="white"/>
</svg>
