<svg xmlns="http://www.w3.org/2000/svg" width="40" height="40" fill="none" viewBox="0 0 40 40"><path fill="#fff" d="M37.8 27.5111C35.0667 27.5111 32.4222 27.0667 29.9556 26.2667C29.1778 26 28.3111 26.2 27.7111 26.8L24.2222 31.1778C17.9333 28.1778 12.0444 22.5111 8.91111 16L13.2444 12.3111C13.8444 11.6889 14.0222 10.8222 13.7778 10.0444C12.9556 7.57778 12.5333 4.93333 12.5333 2.2C12.5333 1 11.5333 0 10.3333 0H2.64444C1.44444 0 0 0.533333 0 2.2C0 22.8444 17.1778 40 37.8 40C39.3778 40 40 38.6 40 37.3778V29.7111C40 28.5111 39 27.5111 37.8 27.5111Z"/></svg>