<svg xmlns="http://www.w3.org/2000/svg" width="21" height="20" fill="none" viewBox="0 0 21 20"><path id="Vector" fill="#6B7280" fill-rule="evenodd" d="M10.7499 0.0791016C13.1378 0.0791016 13.4857 0.0918767 14.492 0.138064C15.5376 0.186216 16.252 0.352293 16.877 0.595021C17.533 0.841556 18.1273 1.22823 18.6184 1.72808C19.1182 2.21921 19.5049 2.81348 19.7515 3.46943C19.9942 4.09443 20.1603 4.80886 20.2084 5.85446C20.2556 6.903 20.2674 7.23712 20.2674 9.90615V9.98476C20.2674 12.5821 20.2556 12.9201 20.2084 13.9578C20.1603 15.0034 19.9942 15.7179 19.7515 16.3429C19.5049 16.9988 19.1182 17.5931 18.6184 18.0842C18.1273 18.5841 17.533 18.9707 16.877 19.2173C16.252 19.46 15.5376 19.6261 14.492 19.6742C13.4435 19.7214 13.1094 19.7332 10.4403 19.7332H10.3617C7.76442 19.7332 7.42637 19.7214 6.38864 19.6742C5.34304 19.6261 4.62861 19.46 4.00361 19.2173C3.34766 18.9707 2.75339 18.5841 2.26226 18.0842C1.76241 17.5931 1.37574 16.9988 1.1292 16.3429C0.886473 15.7179 0.720396 15.0034 0.672243 13.9578C0.626056 12.9515 0.613281 12.6027 0.613281 10.2157V9.59659C0.613281 7.20862 0.626056 6.86074 0.672243 5.85446C0.720396 4.80886 0.886473 4.09443 1.1292 3.46943C1.37574 2.81348 1.76241 2.21921 2.26226 1.72808C2.75339 1.22823 3.34766 0.841556 4.00361 0.595021C4.62861 0.352293 5.34304 0.186216 6.38864 0.138064C7.39492 0.0918767 7.74379 0.0791016 10.1308 0.0791016H10.7499ZM10.6703 1.84994H10.2104C7.79685 1.84994 7.47452 1.86074 6.46922 1.90693C5.51108 1.95115 4.99123 2.11035 4.64434 2.24498C4.18541 2.42383 3.85817 2.6361 3.51423 2.98005C3.17028 3.32399 2.95801 3.65123 2.77916 4.11016C2.64453 4.45705 2.48435 4.9769 2.44111 5.93504C2.39492 6.94034 2.38411 7.26267 2.38411 9.67619V10.1361C2.38411 12.5496 2.39492 12.8719 2.44111 13.8773C2.48533 14.8354 2.64453 15.3552 2.77916 15.7021C2.95801 16.1601 3.17126 16.4883 3.51423 16.8322C3.85817 17.1762 4.18541 17.3885 4.64434 17.5673C4.99123 17.7019 5.51108 17.8621 6.46922 17.9054C7.50499 17.9525 7.81552 17.9624 10.4403 17.9624H10.5189C13.071 17.9624 13.3855 17.9525 14.4105 17.9054C15.3696 17.8611 15.8894 17.7019 16.2363 17.5673C16.6943 17.3885 17.0225 17.1762 17.3664 16.8322C17.7104 16.4883 17.9226 16.1611 18.1015 15.7021C18.2361 15.3552 18.3963 14.8354 18.4395 13.8773C18.4867 12.8405 18.4965 12.5309 18.4965 9.90615V9.82753C18.4965 7.27545 18.4867 6.96098 18.4395 5.93602C18.3953 4.9769 18.2361 4.45705 18.1015 4.11016C17.944 3.68324 17.6929 3.29706 17.3664 2.98005C17.0494 2.65365 16.6632 2.40247 16.2363 2.24498C15.8894 2.11035 15.3696 1.95017 14.4114 1.90693C13.4061 1.86074 13.0838 1.84994 10.6703 1.84994ZM10.4403 4.85996C11.103 4.85996 11.7592 4.99048 12.3714 5.24408C12.9836 5.49767 13.5399 5.86937 14.0085 6.33795C14.4771 6.80654 14.8488 7.36282 15.1024 7.97505C15.356 8.58729 15.4865 9.24347 15.4865 9.90615C15.4865 10.5688 15.356 11.225 15.1024 11.8372C14.8488 12.4495 14.4771 13.0058 14.0085 13.4743C13.5399 13.9429 12.9836 14.3146 12.3714 14.5682C11.7592 14.8218 11.103 14.9523 10.4403 14.9523C9.10199 14.9523 7.81848 14.4207 6.87213 13.4743C5.92579 12.528 5.39414 11.2445 5.39414 9.90615C5.39414 8.56781 5.92579 7.2843 6.87213 6.33795C7.81848 5.39161 9.10199 4.85996 10.4403 4.85996ZM10.4403 6.63079C9.57165 6.63079 8.73855 6.97587 8.1243 7.59012C7.51005 8.20437 7.16497 9.03747 7.16497 9.90615C7.16497 10.7748 7.51005 11.6079 8.1243 12.2222C8.73855 12.8364 9.57165 13.1815 10.4403 13.1815C11.309 13.1815 12.1421 12.8364 12.7564 12.2222C13.3706 11.6079 13.7157 10.7748 13.7157 9.90615C13.7157 9.03747 13.3706 8.20437 12.7564 7.59012C12.1421 6.97587 11.309 6.63079 10.4403 6.63079ZM15.686 3.48122C15.9988 3.48122 16.2987 3.60547 16.5199 3.82662C16.741 4.04777 16.8652 4.34771 16.8652 4.66047C16.8652 4.97323 16.741 5.27317 16.5199 5.49432C16.2987 5.71547 15.9988 5.83972 15.686 5.83972C15.3732 5.83972 15.0733 5.71547 14.8521 5.49432C14.631 5.27317 14.5068 4.97323 14.5068 4.66047C14.5068 4.34771 14.631 4.04777 14.8521 3.82662C15.0733 3.60547 15.3732 3.48122 15.686 3.48122Z" clip-rule="evenodd"/></svg>