<svg width="20" height="17" viewBox="0 0 20 17" fill="none" xmlns="http://www.w3.org/2000/svg">
<path id="Vector" d="M6.28959 16.1699C13.7189 16.1699 17.7826 10.0144 17.7826 4.67694C17.7826 4.50172 17.7826 4.32747 17.7708 4.1552C18.5614 3.5828 19.2438 2.87411 19.7858 2.06235C19.0486 2.38918 18.2665 2.60354 17.4656 2.69828C18.3089 2.19333 18.94 1.3992 19.2415 0.463668C18.4487 0.934104 17.5815 1.26569 16.6771 1.44414C16.0681 0.796167 15.2625 0.367033 14.385 0.223181C13.5075 0.0793301 12.6071 0.228787 11.8231 0.648411C11.0391 1.06803 10.4153 1.73442 10.0484 2.54438C9.68138 3.35433 9.59167 4.26269 9.79311 5.12878C8.18713 5.0483 6.61603 4.63099 5.18178 3.90395C3.74754 3.17691 2.48222 2.15638 1.46795 0.908621C0.951452 1.79774 0.793229 2.85029 1.0255 3.85197C1.25777 4.85365 1.86306 5.72915 2.71815 6.30023C2.07559 6.28163 1.44692 6.10876 0.885184 5.79621V5.8474C0.885567 6.77993 1.20846 7.68363 1.79911 8.40525C2.38976 9.12688 3.21181 9.62201 4.12586 9.8067C3.53109 9.96885 2.90706 9.99242 2.30175 9.87561C2.55982 10.6784 3.06238 11.3804 3.73911 11.8834C4.41584 12.3865 5.2329 12.6654 6.07598 12.6812C5.23836 13.3393 4.27922 13.8259 3.2534 14.113C2.22759 14.4002 1.15523 14.4823 0.0976562 14.3547C1.945 15.5402 4.09454 16.169 6.28959 16.166" fill="#6B7280"/>
</svg>
