<svg width="21" height="17" viewBox="0 0 21 17" fill="none" xmlns="http://www.w3.org/2000/svg">
<path id="Vector" d="M6.68146 16.0143C14.0979 16.0143 18.1545 9.86943 18.1545 4.5412C18.1545 4.36628 18.1545 4.19234 18.1427 4.02037C18.932 3.44896 19.6132 2.74149 20.1543 1.93114C19.4184 2.2574 18.6376 2.47139 17.8381 2.56597C18.6799 2.0619 19.3099 1.26914 19.6109 0.335229C18.8195 0.804851 17.9538 1.13587 17.051 1.314C16.443 0.667153 15.6388 0.238762 14.7629 0.0951595C13.8869 -0.0484426 12.988 0.100755 12.2054 0.519652C11.4227 0.938549 10.8 1.60378 10.4337 2.41233C10.0674 3.22089 9.97781 4.12767 10.1789 4.99227C8.5757 4.91192 7.00732 4.49534 5.57556 3.76955C4.14381 3.04377 2.88068 2.02501 1.86817 0.779412C1.35256 1.66699 1.19461 2.71772 1.42648 3.71766C1.65834 4.71761 2.26259 5.5916 3.1162 6.16168C2.47475 6.14312 1.84717 5.97055 1.28641 5.65854V5.70964C1.28679 6.64055 1.60912 7.54268 2.19875 8.26306C2.78837 8.98343 3.609 9.47771 4.52147 9.66208C3.92773 9.82394 3.30478 9.84748 2.70052 9.73087C2.95815 10.5322 3.45983 11.233 4.13539 11.7352C4.81095 12.2374 5.62659 12.5158 6.46821 12.5316C5.63204 13.1886 4.67456 13.6743 3.65053 13.961C2.62649 14.2476 1.55599 14.3296 0.500244 14.2022C2.34439 15.3857 4.49021 16.0134 6.68146 16.0103" fill="#6B7280"/>
</svg>
